<svg aria-hidden="true" style="width:0;height:0;position:absolute;overflow:hidden" xmlns="http://www.w3.org/2000/svg"><defs><symbol id="icon-charity9" viewBox="0 0 96 32"><path d="M6.85 12.582c-.039 2.256-.039 5.1 0 6.32l.071 2.218H9.12l.036-1.88c.021-1.034.01-3.34-.022-5.126l-.058-3.245 3.645.09.159 4.321h2.081l.043-3.4.043-3.4H6.921l-.071 4.102zm13.596-3.533c-.274.149-.501.461-.617.848-.345 1.15.529 2.092 1.73 1.867.761-.143.638-.404-.189-.404-1.076 0-1.529-.803-.951-1.685.209-.32.391-.395.96-.395.698 0 .93-.198.449-.383-.409-.157-.916-.101-1.382.152zm2.505-.045c-.146.382-.002 2.756.169 2.756.088 0 .182-.271.209-.601.049-.594.056-.6.751-.6s.701.006.75.6c.095 1.149.37.524.37-.839 0-.798-.066-1.362-.16-1.364-.089-.002-.183.25-.21.56-.048.553-.063.564-.76.564-.703 0-.711-.006-.711-.551 0-.576-.26-.911-.409-.525zm4.133-.011c-.283.35-1.131 2.599-1.039 2.754.048.08.24-.045.427-.28.471-.592 1.241-.592 1.51-.002.133.292.245.373.359.259s.008-.558-.337-1.424c-.573-1.433-.687-1.595-.92-1.306zm2.316-.1c-.066.066-.12.762-.12 1.547 0 1.07.05 1.41.2 1.36.11-.036.235-.347.28-.691.087-.676.089-.675.815.292.466.622.715.377.312-.307-.299-.505-.307-.589-.088-.902.302-.432.308-.819.016-1.062-.284-.236-1.255-.4-1.415-.239zm2.678.094c-.153.401-.013 2.777.162 2.734.214-.053.298-2.607.092-2.813-.109-.109-.192-.083-.254.079zm1.16-.092c-.188.188.044.385.451.385.382 0 .391.029.391 1.29 0 .819.058 1.253.16 1.191.088-.055.16-.63.16-1.279 0-1.142.013-1.182.405-1.231.222-.028.42-.122.44-.21.039-.181-1.837-.315-2.007-.145zm2.561-.001c-.052.052.112.443.364.87s.48 1.033.507 1.349c.069.787.351.789.456.003.048-.354.276-.983.508-1.398.675-1.209.118-1.077-.61.144-.159.267-.212.228-.523-.382-.332-.652-.496-.789-.701-.585zM40 10.334c0 1.154.049 1.517.2 1.467.11-.036.222-.326.249-.643.041-.478.117-.587.446-.628.517-.065.51-.355-.009-.42-.305-.039-.405-.144-.405-.429 0-.291.098-.391.428-.43.773-.091.633-.45-.174-.45h-.734v1.534zm2.897-1.311c-.425.236-.803.825-.812 1.264-.018.899.976 1.679 1.887 1.479 1.245-.274 1.538-1.995.452-2.657-.587-.359-.994-.382-1.528-.086zm3.132-.119c-.06.06-.109.601-.109 1.203 0 .88.062 1.155.32 1.413.404.405 1.132.411 1.622.014.334-.27.378-.44.378-1.465 0-.785-.065-1.182-.2-1.227-.148-.051-.2.225-.2 1.045 0 1.246-.178 1.529-.91 1.444-.44-.05-.451-.076-.498-1.171-.047-1.084-.175-1.484-.403-1.256zm3.251 1.416c0 .907.065 1.52.16 1.52.09 0 .16-.453.16-1.04 0-.572.056-1.04.124-1.04s.435.427.815.948c.722.992 1.098 1.27 1.235.915.142-.372-.007-2.666-.173-2.667-.089 0-.182.401-.208.892s-.109.87-.183.842c-.073-.028-.469-.464-.88-.971s-.814-.92-.898-.92-.151.672-.151 1.52zm3.627-1.413c-.175.175-.121 2.745.059 2.857.091.057.463.053.825-.009 1.141-.193 1.738-1.243 1.236-2.178-.285-.533-1.784-1.006-2.12-.67zm3.44 1.179c-.279.712-.507 1.398-.507 1.524 0 .363.251.268.451-.17.141-.312.301-.4.72-.4s.578.089.72.4c.191.42.509.542.509.196 0-.336-1.054-2.734-1.227-2.792-.088-.029-.388.529-.666 1.241zm2.457-1.132c-.057.092.008.204.146.247l.49.153c.186.058.24.35.24 1.29 0 .769.059 1.178.16 1.116.088-.055.16-.63.16-1.279 0-1.142.013-1.182.405-1.231.222-.028.42-.122.44-.21.048-.219-1.909-.301-2.041-.086zm2.874.033c-.153.401-.013 2.777.162 2.734.214-.053.298-2.607.092-2.813-.109-.109-.192-.083-.254.079zm2.059-.029c-.936.378-1.143 1.661-.39 2.414.538.538 1.175.609 1.776.197.56-.383.631-.525.633-1.278.002-.716-.255-1.095-.912-1.345-.459-.175-.651-.172-1.108.011zm2.891.056c-.167.433.007 2.718.212 2.786.147.048.2-.216.2-.987 0-.579.056-1.054.124-1.054s.435.427.815.948c.722.992 1.098 1.27 1.235.915.161-.419-.009-2.717-.206-2.782-.135-.044-.207.264-.24 1.021l-.048 1.085-.843-1.073c-.848-1.081-1.098-1.254-1.249-.86zm-36.162.526c.115.3-.162.7-.485.7-.139 0-.221-.179-.221-.48 0-.364.073-.48.303-.48.167 0 .348.117.403.26zm13.925.095c.536.765.108 1.725-.768 1.725-.285 0-.605-.086-.711-.192-.249-.249-.249-1.447 0-1.696.329-.329 1.201-.233 1.479.163zm10.08 0c.538.768.029 1.794-.84 1.694-.41-.048-.432-.097-.478-1.049l-.048-1h.559c.396 0 .631.103.807.355zm10.643-.046c.227.425.199 1.153-.057 1.491-.269.354-1.022.362-1.405.015-.362-.327-.386-1.219-.042-1.564.364-.364 1.297-.327 1.503.058zm-37.605.851c.007.177-.106.28-.308.28-.37 0-.395-.141-.127-.728.172-.377.204-.391.308-.127.064.162.121.421.127.575zm29.828.158c-.079.128-.697.174-.697.053 0-.038.077-.272.172-.52l.172-.45.214.398c.117.218.18.453.139.519zM20.88 16.537c-.974.446-1.36 1.33-.98 2.24.166.396.537.728 1.402 1.253 1.642.995 1.871 1.776.691 2.355-.442.217-1.006.153-1.833-.204-.149-.065-.318.02-.446.224-.186.299-.155.349.355.562 1.145.478 2.808.188 3.349-.585.144-.204.261-.639.261-.964 0-.756-.519-1.387-1.678-2.042-1.086-.613-1.433-1.089-1.212-1.669.231-.609 1.236-.759 2.29-.342.209.083.28.031.28-.207 0-.175-.092-.394-.204-.487-.352-.292-1.75-.374-2.275-.133zm17.239.084c-.99.341-1.403.682-1.819 1.498-.99 1.941-.175 4.302 1.701 4.921.668.221 2.488.145 3.159-.131.432-.177.44-.208.44-1.545V20h-.946l-.047 1.159-.047 1.16-.679.143c-.921.194-1.975-.211-2.565-.984-.377-.494-.437-.724-.437-1.654 0-1.168.227-1.641 1.102-2.294.478-.357 1.996-.459 2.859-.192.4.124.44.099.44-.267 0-.356-.096-.425-.808-.578-1.074-.231-1.361-.215-2.352.128zM25.317 19.8l.044 3.321 3.44.09v-.405c0-.4-.016-.405-1.28-.405h-1.28v-2.225l1.08-.048c.974-.043 1.085-.082 1.131-.4.047-.33-.02-.355-1.04-.4l-1.09-.047v-2.08l1.118-.08c.899-.064 1.129-.135 1.172-.36.048-.252-.114-.28-1.642-.28h-1.695l.044 3.32zm5.12 0 .044 3.321h.4c.391 0 .401-.031.446-1.328.071-2.027.591-1.996 1.845.112.685 1.151.823 1.296 1.24 1.296.258 0 .469-.061.469-.135s-.395-.765-.877-1.534l-.878-1.397.558-.526c.49-.463.557-.62.557-1.317 0-1.346-.68-1.811-2.654-1.811h-1.193l.044 3.32zm13.12 0 .044 3.321h.8l.043-3.321.044-3.32h-.973l.044 3.32zm2.501-2.81C48.175 20.742 48 20.307 48 21.83v1.392l.44-.051c.437-.05.441-.061.52-1.497.079-1.417.099-1.48 1.08-3.23.551-.981 1-1.825 1-1.874s-.208-.09-.463-.09c-.424 0-.528.129-1.238 1.52-.426.835-.812 1.518-.857 1.516s-.442-.668-.882-1.48c-.734-1.353-.843-1.481-1.321-1.527l-.52-.05.299.53zm9.179 2.81.044 3.321h.4c.384 0 .403-.048.48-1.2l.08-1.2.799-.086c.441-.048.962-.176 1.159-.285.792-.439 1.097-1.952.592-2.93-.336-.648-1.101-.939-2.468-.939h-1.128l.044 3.32zm5.403.04v3.36h.4c.395 0 .4-.016.4-1.349 0-1.175.039-1.362.298-1.444.516-.164.763.057 1.61 1.443.648 1.061.903 1.35 1.192 1.35.202 0 .41-.044.464-.097s-.295-.731-.773-1.505c-.907-1.465-1.016-1.758-.656-1.758.385 0 .781-.611.862-1.33.158-1.396-.638-2.028-2.558-2.029l-1.24-.001v3.36zm5.53-2.292 1.132 2.051c.478.866.531 1.09.534 2.28.003 1.3.009 1.32.404 1.32s.4-.02.403-1.32c.002-1.173.057-1.418.494-2.2.271-.484.781-1.407 1.134-2.051l.642-1.172-.512.052c-.465.047-.582.182-1.269 1.466-.417.778-.816 1.413-.888 1.412s-.464-.638-.872-1.415c-.685-1.303-.783-1.415-1.273-1.463l-.531-.052.601 1.091zm5.741-.894c-.183.296.133.446 1.049.497l.88.049.08 2.96c.079 2.92.085 2.96.44 3.011l.36.051v-2.968c0-3.351-.119-3.073 1.359-3.172.46-.03.653-.121.692-.322.048-.256-.148-.28-2.349-.28-1.557 0-2.44.062-2.51.174zm6.33 2.426c0 2.325.034 2.656.323 3.129.396.65 1.165.99 2.236.99s1.84-.34 2.236-.99c.289-.473.323-.804.323-3.129l.001-2.6h-.772l-.054 2.548c-.052 2.434-.071 2.565-.439 2.957-.83.883-2.367.632-2.823-.461-.164-.393-.231-1.203-.231-2.799V16.48h-.8l.001 2.6zm7.199.76v3.36h3.36v-.4c0-.391-.026-.4-1.2-.4h-1.2v-5.92h-.96v3.36zm6.334-1.717c-.345.9-.903 2.346-1.24 3.213s-.615 1.647-.615 1.731.193.13.429.103c.348-.041.49-.202.752-.85.176-.441.398-.853.491-.918s.637-.117 1.209-.117c.572 0 1.119.052 1.217.117s.268.406.381.758c.112.351.276.729.363.839.177.223.92.276.92.066 0-.113-1.919-5.091-2.401-6.225a.546.546 0 0 0-.516-.356c-.312.003-.45.233-.989 1.639zm-59.083-.819c.482.254.584.446.587 1.112.003.72-.393 1.102-1.265 1.219l-.652.087V17.12h.491c.27 0 .647.083.84.184zm24.764.064a1.369 1.369 0 0 1 .701 1.533l.002-.009c-.134.607-.581.961-1.346 1.063l-.652.087v-1.46c0-1.46.001-1.461.408-1.461.225 0 .624.112.887.248zm5.757.163c.421.382.414 1.364-.014 1.75-.197.179-.584.297-1 .305l-.678.013-.048-1.022c-.066-1.409-.007-1.517.784-1.411.357.048.788.212.957.365zM12.74 20.248c-.061 1.543-.067 2.876-.016 2.96s.594.153 1.205.153h1.11v-5.92h-2.191l-.109 2.808zm80.596-.919c.233.643.424 1.201.424 1.241s-.432.071-.96.071-.96-.045-.96-.101c0-.332.875-2.605.963-2.503.06.068.299.651.532 1.293z"/></symbol><symbol id="icon-charity8" viewBox="0 0 66 32"><path d="M21.209 13.094c-.03.08-.043 1.64-.026 3.468l.03 3.322h1.218v-6.868l-.583-.034c-.404-.024-.6.011-.638.112zm5.787-.065c-.044.043-.079.67-.079 1.392v1.314l-.36-.192c-.523-.279-1.566-.256-2.146.048a2.364 2.364 0 0 0-1.045 3.089l-.006-.015c.259.561.594.868 1.278 1.171a2.183 2.183 0 0 0 2.009-.124l.38-.235v.236c0 .216.051.234.582.203l.582-.033v-6.868l-.559-.033c-.307-.018-.593.002-.637.046zm10.605.535c-.288.289-.295.578-.023.919.164.205.688.168.898-.064.216-.239.24-.721.044-.878-.34-.272-.63-.265-.919.023zm6.288-.099c-.467.327-.199 1.159.372 1.155.687-.006.885-.887.273-1.214-.281-.151-.355-.144-.645.059zm-40.692.434c-.055.055 1.991 5.63 2.174 5.927.098.158.561.142.691-.025.059-.076.402-.898.761-1.827s.684-1.689.721-1.689c.037-.001.38.821.763 1.827.671 1.762.707 1.827 1.006 1.827.171 0 .344-.054.385-.121s.563-1.415 1.159-2.998c1.101-2.921 1.13-3.061.602-2.956-.127.025-.415.654-.924 2.013-.408 1.086-.788 1.976-.848 1.977s-.344-.613-.633-1.366C8.252 14.403 8.25 14.4 7.875 14.4c-.317 0-.341.043-1.015 1.772-.38.975-.723 1.772-.762 1.772s-.4-.91-.802-2.022l-.73-2.021-.654-.033c-.36-.018-.683-.004-.716.03zm27.929.01c0 .061 1.354 3.153 2.385 5.447.206.459.315.582.517.582.228 0 .395-.318 1.558-2.963.716-1.63 1.301-3.001 1.301-3.047-.002-.139-.537-.092-.63.056-.048.076-.454.985-.9 2.022s-.85 1.922-.897 1.968c-.046.048-.482-.849-.969-1.994l-.885-2.079-.741-.033c-.407-.018-.74 0-.74.04zM13.55 15.406c-.842.159-1.551.692-1.801 1.355-.165.434-.148 1.452.031 1.881.191.457.822 1.012 1.346 1.186.227.075.745.116 1.168.092.622-.035.847-.103 1.236-.373 1.194-.83 1.306-2.702.217-3.618-.549-.461-1.419-.668-2.198-.522zm5.416.102c-.436.266-.468.269-.468.048 0-.138-.116-.165-.582-.138l-.581.033v4.432h1.218L18.608 18l.056-1.883.32-.037a.953.953 0 0 1 .61.173c.552.402.556.401.788-.139a6.34 6.34 0 0 0 .221-.556c0-.064-.805-.272-1.052-.272-.122 0-.385.099-.585.222zm28.701-.102c-1.212.228-1.919 1.061-1.919 2.261 0 1.393.943 2.272 2.437 2.272 1.483 0 2.432-.886 2.432-2.27 0-1.534-1.343-2.564-2.95-2.262zm5.78.058c-.778.296-.831.303-.831.112 0-.141-.117-.179-.554-.179h-.554v4.542h1.218V16.3l.292-.23c.364-.287 1.105-.304 1.439-.034.426.345.484.619.484 2.294v1.619l1.274-.066-.004-1.551c-.004-1.712-.085-2-.715-2.53-.34-.286-.97-.519-1.385-.51-.122.002-.422.08-.665.172zm-16.229 2.204v2.281l1.229-.066v-4.432l-1.229-.066v2.282zm2.926-2.114c-.785.341-1.069 1.269-.579 1.892.133.169.595.468 1.026.665s.85.436.93.532c.215.259.112.656-.22.842-.368.205-1.021.038-1.469-.377-.165-.153-.316-.277-.336-.277s-.101.156-.18.347c-.129.309-.121.363.064.5.545.398 1.861.492 2.487.178.47-.236.889-.834.889-1.268 0-.601-.281-.94-1.08-1.305-1.235-.564-1.3-.608-1.34-.886-.084-.588.857-.756 1.559-.278.397.27.412.272.524.062.063-.118.115-.291.115-.383 0-.366-1.71-.539-2.391-.243zm3.499 2.114v2.27h1.218v-4.542h-1.218v2.271zm-29.14-1.777c.42.217.673.885.673 1.777 0 1.295-.541 2.056-1.336 1.881-.669-.147-1.094-1.327-.885-2.456.212-1.143.792-1.593 1.548-1.203zm34.116 0c.466.241.674.785.674 1.771 0 1.023-.251 1.617-.778 1.835-.295.122-.402.116-.732-.04-.513-.245-.73-.782-.73-1.808 0-.916.249-1.559.689-1.778.359-.179.499-.176.877.021zm-22.024.139.322.19v2.896l-.322.19c-.406.24-1.102.244-1.438.01-.142-.099-.327-.347-.413-.551-.198-.473-.199-1.607-.002-2.078.322-.772 1.155-1.067 1.852-.656z"/></symbol><symbol id="icon-charity7" viewBox="0 0 87 32"><path d="M28.326 16.774c-4.17.817-5.666 5.709-2.617 8.56 1.654 1.547 3.995 1.895 6.142.912 1.09-.499 1.883-1.278 2.427-2.383.413-.839.471-1.1.471-2.116 0-.95-.069-1.305-.38-1.971-.51-1.086-1.245-1.87-2.253-2.402-1.306-.688-2.434-.867-3.789-.602zm1.699 2.128c.293.225.783.59 1.087.812 2.365 1.721.986 5.066-1.986 4.82-2.362-.196-3.406-2.904-1.728-4.478.353-.332 1.914-1.512 2.049-1.549.025-.007.285.171.578.396z"/></symbol><symbol id="icon-charity6" viewBox="0 0 96 32"><path d="M9.28 4.72v4.56h4V4h14.56v14.72H13.28v-5.28h-4v9.078l5.702.072c3.137.04 8.213.04 11.28 0l5.577-.072V.16H9.279v4.56zm63.722 6.718c-2.122.594-3.402 2.277-3.402 4.473 0 1.32.502 2.507 1.405 3.321 1.157 1.042 1.524 1.169 3.395 1.169 1.561 0 1.741-.034 2.532-.473 1.573-.87 2.33-2.203 2.324-4.088-.005-1.421-.467-2.505-1.429-3.35-1.229-1.079-3.197-1.509-4.825-1.052zM36.64 15.905v4.415h2.24v-1.6c0-.88.054-1.597.12-1.594s.556.706 1.089 1.56l.969 1.553 1.392.047c.764.026 1.391.005 1.391-.046s-.584-.849-1.298-1.775-1.273-1.697-1.24-1.714l.67-.344c.787-.4 1.119-1.052 1.12-2.199.001-.698-.088-1.041-.379-1.465-.694-1.014-1.079-1.138-3.714-1.199l-2.36-.055v4.414zm11.617-.187-1.658 4.401c-.055.149.235.2 1.13.2h1.204l.226-.68.227-.68 3.384-.09.228.686.229.685 2.441.093-.299-.847c-.165-.465-.743-1.999-1.286-3.407.172.649-.279-.515-.723-1.683l-.613-1.837-.347-.959-2.559-.084-1.583 4.202zM59.2 12.48v.96h1.68c.924 0 1.68.034 1.68.074s-.9 1.549-2 3.35c-1.1 1.802-2 3.316-2 3.366s1.656.09 3.68.09h3.68V18.4h-1.777c-1.381 0-1.759-.046-1.698-.206.043-.112.924-1.606 1.958-3.32s1.91-3.169 1.947-3.235c.038-.066-1.555-.12-3.54-.12H59.2v.96zm25.059-.68c-.046.155-.377 2.044-.735 4.2s-.684 4.01-.723 4.12c-.052.148.232.2 1.098.2h1.168l.284-2.04c.464-3.331.364-3.296 1.454-.497.924 2.374.974 2.459 1.443 2.505.485.048.486.046 1.514-2.478 1.015-2.491 1.03-2.516 1.138-1.888.149.875.43 2.72.554 3.638l.102.76h1.102c.819 0 1.102-.056 1.102-.217 0-.25-1.044-6.496-1.294-7.743l-.169-.84h-2.194l-.475 1.24c-.091.161-.38.93-.658 1.703l-.194.617c-.207.593-.411 1.079-.455 1.077s-.323-.667-.619-1.479c-.296-.813-.679-1.856-.852-2.318l-.313-.84h-1.098c-.907 0-1.112.048-1.18.28zm-43.88 1.812c.872.686.258 1.908-.96 1.908h-.538v-2.24h.538c.303 0 .723.145.96.332zm35.429.26c.787.587 1.072 1.132 1.072 2.047 0 1.047-.36 1.608-1.363 2.12-.889.454-1.37.454-2.234-.004-1.552-.821-1.755-3.098-.364-4.085.243-.173.586-.354.762-.402.582-.16 1.711.011 2.128.324zm-24.136 1.863.468 1.385h-1.03c-.566 0-1.029-.033-1.029-.074 0-.073.501-1.498.834-2.371.093-.245.197-.419.23-.385s.271.683.528 1.445z"/></symbol><symbol id="icon-charity5" viewBox="0 0 91 32"><path d="M16.821 2.39c-.713.441-1.232 1.152-1.491 2.045-.298 1.025-.298 1.043.048 1.72.366.718.725 1.024 1.334 1.138.434.082.564.014 1.179-.61.924-.937 1.155-1.43 1.165-2.485.008-.765-.053-.961-.446-1.447-.537-.667-1.11-.782-1.789-.362zm8.761 3.362c-4.651 1.308-8.484 2.674-12.451 4.436-2.404 1.068-6.241 3.07-6.858 3.578-.545.449-.547.453-.241.718.169.146.307.411.307.587 0 .31.025.305.724-.125.425-.261.846-.414 1.019-.368.176.046 1.059-.285 2.181-.817 2.662-1.26 7.638-3.133 10.866-4.09 2.157-.639 2.242-.663 4.302-1.215.996-.266 1.949-.538 2.117-.603.336-.131.447-.663.236-1.137a10.887 10.887 0 0 1-.276-.665l-.043-.127c-.219-.579-.38-.594-1.883-.172zm3.772 2.925c-.083.028-1.271.402-2.641.833-3.096.973-4.255 1.359-5.886 1.964l-2.102.777.938.851a56.708 56.708 0 0 1 1.723 1.643l-.002-.002.783.79 1.934-.927c.084-.104 1.513-.776 2.95-1.434l1.398-.573c2.681-1.198 2.719-1.238 2.263-2.384-.264-.665-.922-1.62-1.101-1.599a1.469 1.469 0 0 0-.267.066l.011-.003zm3.245 4.632c-3.423.794-6.164 1.508-7.978 2.078l-1.996.627.438.558c.241.307.554.783.694 1.059l.257.502 2.292-.106c1.896-.088 2.514-.178 3.575-.521.705-.228 1.962-.6 2.792-.826s1.679-.461 1.887-.521c.332-.096.383-.204.423-.901a4.728 4.728 0 0 0-.2-1.535c-.287-.863-.264-.859-2.185-.413zm-17.959.463c-1.278.571-9.804 4.878-10.866 5.489-1.175.675-1.288.78-1.332 1.251-.027.283.066.816.207 1.184.309.81.319.81 2.71-.115 3.168-1.226 3.209-1.134.193.439-4.112 2.143-3.961 2.044-4.012 2.634-.05.573.352 1.509.837 1.949.285.258.367.233 2.393-.73-.362.116.55-.32 1.466-.749l1.311-.552 1.132-.508a256.84 256.84 0 0 1 1.801-.79l1.349-.586.51-1.345c.28-.739.633-1.684.782-2.099s.562-1.434.916-2.264c1.458-3.416 1.493-3.605.604-3.207zm2.609 5.972a90.971 90.971 0 0 1-1.887 3.636c-.703 1.25-.853 1.426-1.251 1.47-.249.027-.589-.013-.755-.088a4.03 4.03 0 0 0-.691-.224l-.029-.006a1.773 1.773 0 0 1-.739-.411c-.317-.317-.326-.317-.864-.04-1.186.611-1.373.805-1.373 1.417 0 .316.098.81.217 1.096.441 1.056.394 1.064 3.746-.603 3.057-1.52 6.388-3.117 7.004-3.358.242-.095.308-.22.255-.476-.398-1.902-.964-3.09-1.913-4.012l-.632-.615-1.088 2.215zm7.049-.774c-.001.067-.2.856-.443 1.753l-.443 1.631.404-.046c.358-.042.433-.156.662-1.008.357-1.329.468-1.347.341-.057l-.108 1.094h.443c.399 0 .494-.105.953-1.054.28-.579.529-1.035.552-1.012s-.056.413-.177.865c-.292 1.098-.281 1.2.125 1.2.314 0 .381-.138.692-1.433.19-.788.381-1.569.425-1.735.069-.266.006-.304-.509-.304-.578 0-.598.019-1.147 1.094l-.559 1.095.024-1.057.025-1.057-.631-.046c-.347-.025-.631.008-.632.076zm3.91.536a78.82 78.82 0 0 0-.434 1.698l-.258 1.057 1.126.044c.619.024 1.143.024 1.164 0s.085-.197.142-.384c.099-.321.063-.34-.646-.34-.676 0-.743-.03-.672-.302.062-.235.206-.302.649-.302.381 0 .601-.08.662-.239.167-.435.097-.516-.447-.516-.432 0-.53-.052-.49-.264.037-.196.243-.283.803-.339.639-.064.761-.127.801-.415.046-.326.004-.34-1.088-.34h-1.137l-.176.641zm2.977-.521c-.074.118-.85 3.103-.85 3.266 0 .19 1.851.073 2.27-.144.95-.492 1.43-2.506.715-3.007-.352-.246-1.999-.336-2.135-.115zm3.089.446c-.082.311-.281 1.092-.443 1.736l-.295 1.17h1.192c.656 0 1.192-.063 1.192-.139s.041-.246.091-.377c.076-.196-.031-.239-.603-.239-.588 0-.696-.045-.696-.293 0-.237.123-.302.641-.34.534-.039.65-.104.69-.386.043-.299-.018-.34-.501-.34-.443 0-.54-.052-.5-.264.037-.196.242-.283.803-.339.639-.064.761-.127.801-.415.046-.326.004-.34-1.089-.34h-1.136l-.148.566zm3.29-.223c-.971.648-1.375 2.191-.739 2.826.227.227.503.302 1.114.302.747 0 .818-.031.885-.377.067-.356.034-.378-.584-.378-.575 0-.667-.047-.751-.38-.216-.861.539-1.683 1.426-1.553.359.052.471.003.533-.234.118-.451-.012-.55-.724-.55-.422 0-.827.119-1.161.343zm2.072 1.237c-.218.869-.396 1.65-.396 1.736s.191.156.423.156c.409 0 .434-.046.768-1.433.19-.788.381-1.569.425-1.735.066-.254.005-.304-.372-.304-.448 0-.456.014-.848 1.58zm1.663-.787c-.124.436-.302 1.098-.397 1.471s-.207.803-.251.955c-.067.228-.006.267.346.227.39-.045.446-.131.644-.993.119-.519.261-.943.315-.943s.196.424.316.943c.213.926.227.944.756.989l.539.046.403-1.554c.491-1.893.492-1.932.036-1.932-.313 0-.387.102-.519.717-.327 1.523-.401 1.563-.694.369-.264-1.076-.271-1.086-.767-1.086-.475 0-.513.041-.727.793zm3.771-.48c-.499.393-.505.846-.018 1.563.46.677.371.877-.357.814-.502-.044-.555-.012-.598.367-.047.408-.033.415.769.415.62 0 .881-.072 1.085-.297.363-.401.338-.993-.065-1.537-.43-.582-.306-.939.295-.85.347.051.47-.001.543-.228.191-.603-.98-.777-1.654-.246zm4.433-.208c-.641.229-.825 1.309-.302 1.782.166.15.302.406.302.568 0 .251-.086.286-.595.238-.496-.048-.609-.006-.677.248-.138.513-.112.532.744.532 1.322 0 1.798-.73 1.132-1.736-.46-.695-.399-.981.21-.981.545 0 .871-.4.512-.627-.214-.136-.973-.149-1.326-.023zm1.871 1.509c-.573.888-1.064 1.669-1.092 1.736s.155.122.406.122c.349 0 .521-.109.728-.459.475-.803 1.406-.802 1.406.001 0 .411.048.458.471.458h.47l-.103-1.472c-.138-1.955-.154-2-.75-2-.464 0-.561.102-1.537 1.614zm3.057-.075c-.49 1.891-.491 1.932-.038 1.932.313 0 .387-.108.547-.793.261-1.117.383-1.302.511-.773.387 1.599.367 1.566.918 1.566.48 0 .528-.045.686-.641.094-.353.297-1.104.451-1.668.242-.88.251-1.038.063-1.11-.417-.16-.617.073-.82.952-.297 1.285-.348 1.296-.615.129-.239-1.046-.247-1.057-.771-1.102l-.53-.046-.404 1.554zm3.976-1.268c-.457.37-.46 1.038-.008 1.649.424.573.29.845-.379.767-.404-.047-.517.001-.584.25-.139.516-.114.534.737.534.654 0 .888-.069 1.132-.33.409-.44.388-.821-.084-1.502-.464-.669-.383-.884.336-.884.463 0 .524-.043.481-.34-.039-.28-.157-.348-.664-.385-.43-.031-.722.041-.968.24zm3.921-.157c-.001.062-.196.847-.434 1.744l-.432 1.631.472-.046c.421-.041.487-.116.614-.687.137-.618.163-.641.717-.641.316 0 .575-.063.575-.139s.042-.246.092-.377c.073-.191-.02-.239-.464-.239-.447 0-.545-.051-.505-.264.038-.199.227-.275.766-.31.645-.042.716-.082.716-.415 0-.356-.037-.369-1.057-.369-.581 0-1.057.051-1.059.114zm2.214 1.509c-.22.893-.4 1.678-.4 1.746s.179.102.398.076c.337-.04.437-.174.656-.878l.258-.83.116.867c.115.855.124.868.608.868h.491l-.129-.696c-.123-.654-.103-.72.321-1.117.311-.291.451-.565.451-.884 0-.598-.336-.775-1.476-.775h-.892l-.401 1.622zm3.862-1.322a2.278 2.278 0 0 0-1.092 1.924v.001c-.001.879.381 1.245 1.297 1.245.876 0 1.518-.37 1.886-1.089.428-.833.383-1.682-.11-2.07-.507-.399-1.339-.404-1.981-.012zm3.133-.246c0 .031-.198.812-.441 1.736l-.441 1.68h.417c.385 0 .432-.067.609-.868.264-1.196.393-1.392.515-.78.304 1.518.376 1.648.926 1.648.568 0 .479.174 1.05-2.07a18.17 18.17 0 0 1 .327-1.17c.066-.172-.014-.232-.309-.232-.219 0-.427.085-.462.189-.018.009-.128.374-.234.741l-.088.354-.258.906-.135-.528c-.454-1.776-.388-1.661-.953-1.661-.287 0-.522.025-.522.055zm3.261.184c-.159.414-.103.516.285.516.448 0 .445-.049.076 1.283-.383 1.381-.379 1.434.123 1.434.386 0 .441-.071.618-.793.457-1.866.485-1.924.926-1.924.319 0 .427-.085.483-.377l.072-.378h-1.246c-.997 0-1.264.048-1.337.239zm2.792.327c-.08.311-.228.872-.328 1.245-.465 1.741-.466 1.682.043 1.631.449-.046.466-.078.886-1.706.236-.914.431-1.678.434-1.698s-.195-.038-.441-.038c-.39 0-.466.073-.594.566zm1.566-.377c-.114.317-.827 3.049-.827 3.169-.001.063.501.114 1.115.114.878 0 1.135-.051 1.207-.239.172-.447.092-.516-.588-.516-.373 0-.678-.05-.677-.113.006-.286.268-.47.737-.516.366-.035.546-.146.635-.389.116-.315.082-.34-.46-.34-.51 0-.575-.038-.506-.302.065-.25.206-.302.816-.302.405 0 .737-.063.737-.139s.042-.246.092-.377c.078-.205-.072-.239-1.061-.239-.785 0-1.174.061-1.221.189zm2.658.377c-.082.311-.281 1.092-.443 1.736l-.296 1.17h.43c.369 0 .453-.081.588-.566.086-.311.157-.654.158-.763.002-.458.276.022.37.648.094.63.135.682.545.682.49 0 .544-.18.305-1.014-.118-.413-.097-.496.153-.575.386-.123.787-.922.679-1.352-.1-.4-.468-.525-1.555-.528-.782-.002-.787.001-.934.564zm3.081-.377c-.035.104-.206.766-.38 1.472-.224.974-.36 1.493-.502 2.009l.108-.462c-.069.235.048.264 1.069.264 1.051 0 1.157-.029 1.273-.34.119-.319.083-.342-.592-.385-.628-.04-.709-.082-.642-.34.059-.226.209-.294.647-.294.381 0 .6-.08.662-.239.167-.434.097-.516-.436-.516-.428 0-.528-.057-.528-.302 0-.261.101-.302.739-.302.71 0 .921-.142.921-.616 0-.221-2.261-.173-2.338.05zm3.128-.036c-.188.078-.411.321-.494.541-.125.33-.083.517.236 1.063.455.776.376 1.011-.315.931-.399-.047-.517.001-.578.238-.12.456.015.546.822.546 1.299 0 1.701-.772.965-1.855-.457-.672-.385-.862.328-.862.463 0 .524-.043.481-.34-.038-.271-.155-.346-.576-.372-.291-.017-.682.032-.87.11zM32.72 20.232c.057.68-.428 1.35-.978 1.35-.416 0-.415.055-.032-1.405.133-.506.2-.569.558-.528.347.04.414.127.452.583zm33.602-.475c.163.264-.101.618-.46.618-.372 0-.428-.105-.27-.516.099-.257.591-.325.73-.101zm3.463.101c.173.451.091.929-.227 1.334-.247.314-.427.396-.793.36-.428-.042-.477-.1-.519-.61-.037-.439.037-.648.332-.943.427-.427 1.069-.502 1.207-.141zm13.608-.072c.148.239-.296.624-.65.564-.245-.042-.278-.115-.175-.391.133-.355.646-.464.825-.174zm-30.571.437c0 .353-.067.453-.302.453-.363 0-.378-.126-.067-.57.31-.443.368-.424.368.117zm-29.039 3.91c-.144.159-.461.371-.705.473-.331.137-.404.232-.287.373.113.137.093.214-.074.278-.364.14-.268.4.148.4.549 0 .526.566-.027.632-.511.061-.66.424-.175.429.332.004.323.029-.159.428-.449.372-.478.438-.24.529.352.135 1.234-.65.94-.837-.104-.066.613-.121 1.593-.123 1.1-.001 1.748.053 1.693.143-.049.08-.002.3.104.49s.201.364.21.387c.009.023.127-.001.264-.054.316-.12.315-.342-.001-.692-.236-.261-.228-.276.15-.276.256 0 .401-.082.401-.226 0-.129-.136-.227-.313-.227-.485 0-.304-.517.202-.576.524-.061.56-.481.041-.481-.269 0-.349-.063-.285-.226.048-.125.215-.227.372-.227s.285-.101.285-.226c0-.188-.293-.227-1.731-.227-1.477 0-1.718-.033-1.644-.226.128-.335-.447-.289-.763.061zm40.128.09-.142.452c-.039.125-.246.227-.463.227-.315 0-.374-.056-.302-.284.184-.581-.318-.411-1.078.365-.429.438-.74.837-.691.886.172.172.423.085.826-.288.491-.456 1.731-.565 1.568-.139-.05.131-.091.298-.091.37s-.385.151-.856.176c-1.19.063-1.294.423-.122.423.721 0 .844.038.767.238-.05.131-.092.302-.092.377s-.536.139-1.191.139c-.92 0-1.211.052-1.278.227-.076.195.276.226 2.625.226 2.31 0 2.712-.033 2.712-.226 0-.181-.226-.227-1.127-.227-1.106 0-1.125-.007-1.002-.34.108-.294.249-.345 1.051-.384.674-.033.927-.103.927-.257 0-.152-.247-.225-.886-.257-.848-.043-.88-.059-.759-.385.114-.308.225-.34 1.187-.34.607 0 1.061-.065 1.061-.15s-.419-.151-.956-.151c-.526 0-.997-.041-1.046-.091s-.029-.253.046-.453c.123-.322.096-.362-.241-.362-.208 0-.41.102-.449.227zm-31.707 1.698-.446 1.774h5.199l.444-1.774.445-1.773h-5.195l-.447 1.773zm10.462-1.66c-.035.062-.11.317-.167.566s-.139.572-.182.717c-.063.214.016.264.415.264.642 0 .415.216-.503.481-.534.153-.678.255-.583.41.107.172.24.167.823-.031.383-.131.696-.184.696-.119 0 .233-.578.635-1.132.788-.372.103-.513.207-.415.305.228.228 1.212-.014 1.691-.417.445-.374.7-.964.417-.964-.091 0-.033-.099.127-.221s.438-.224.614-.227c.376-.005.709.333.526.534-.069.077-.197.428-.282.782-.149.613-.141.641.189.641.275 0 .364-.108.445-.537.118-.625.325-.744.907-.523.31.118.479.112.64-.021.18-.15.078-.236-.585-.494l-.802-.313.611-.045c.586-.043.62-.074.792-.719.099-.371.18-.741.18-.823 0-.174-4.325-.21-4.422-.035zm9.196.453c-.052.311-.196.761-.321.998s-.227.458-.227.491c0 .032.424.07.943.085.846.024.869.033.231.084-.676.053-.72.084-.867.614-.085.306-.155.592-.155.633s1.01.076 2.246.076h2.247l.147-.641.146-.641-.771-.027c-.712-.025-.69-.033.273-.114.948-.078 1.047-.118 1.069-.426.02-.27-.054-.339-.361-.339h-.386l.338-.237c.186-.13.304-.292.261-.36s.059-.159.224-.202c.165-.043.3-.152.3-.243 0-.207-.253-.216-.377-.014-.142.228-.378.181-.378-.076 0-.362-1.28-.304-1.66.076-.371.371-.381.586-.037.846.244.186.239.201-.076.206-.2.003-.34.098-.34.231 0 .187-.234.221-1.321.196l-1.32-.031 1.245-.05c.684-.028 1.245-.086 1.245-.13s-.07-.211-.156-.372c-.127-.236-.106-.294.113-.306.187-.011.153-.052-.108-.136l-.377-.12.377-.037c.278-.027.219-.065-.227-.144l-.603-.108.641-.022c.353-.012.641-.089.641-.172 0-.088-.522-.15-1.264-.15h-1.264l-.093.566zm.8-.027c-.146.176-.152.266-.025.345.116.072.076.168-.127.294-.278.173-.293.156-.2-.232.129-.54.192-.645.387-.645.097 0 .083.093-.037.238zm3.234-.012c.065.172-.027.227-.38.227-.398 0-.438-.033-.278-.227.103-.124.274-.226.38-.226s.231.102.278.226zm-20.656.076c-.051.083-.493.151-.981.151s-.929.068-.98.151c-.059.095.278.15.905.15h.999l-.046.607c-.026.334-.114.602-.197.597s-.13-.21-.103-.456c.047-.442.039-.446-.717-.446-.421 0-.765.05-.767.113s-.042.261-.09.442c-.076.283-.018.338.417.391.456.056.443.065-.136.086-.916.035-.86.402.062.402.428 0 .728.074.767.189.046.137-.186.189-.854.189-.742 0-.918-.046-.918-.242 0-.219.371-1.821.53-2.286.044-.127.413-.189 1.134-.189.675 0 1.036.056.977.15zm.83 0v.01c0 .083-.068.151-.151.151s-.151-.068-.151-.151v-.011a.151.151 0 0 1 .302 0zm.78.831c-.198.828-.277.968-.507.895-.153-.048-.273-.012-.273.083s-.069.127-.155.075c-.093-.058.007-.288.248-.575.35-.415.369-.485.144-.53-.143-.029-.359.074-.479.226-.207.261-.217.255-.178-.1.035-.318.131-.385.608-.424.596-.049.684-.152.385-.451-.141-.141-.112-.181.13-.181.307 0 .308.014.076.982zm7.521-.831c0 .083-.272.151-.604.151s-.603-.068-.603-.151.272-.15.603-.15c.332 0 .604.067.604.15zm1.962 0c0 .083-.306.151-.679.151s-.679-.068-.679-.151.306-.15.679-.15c.374 0 .679.067.679.15zm-21.732.227c0 .126-.134.226-.302.226-.3 0-.392-.161-.201-.352.184-.184.503-.104.503.126zm1.056-.071c0 .18-.426.374-.549.251-.132-.132.092-.406.332-.406.12 0 .217.07.217.156zm1.056.071c0 .126-.134.226-.302.226s-.302-.1-.302-.226.134-.227.302-.227c.168 0 .302.101.302.227zm29.128.141c0 .159-.29.227-.376.087-.052-.084.011-.153.14-.153s.236.03.236.066zm-11.621.236c0 .083-.272.151-.603.151s-.604-.068-.604-.151.272-.151.604-.151c.332 0 .603.068.603.151zm1.962 0c0 .083-.31.151-.688.151-.42 0-.652-.059-.594-.151.051-.083.361-.151.688-.151s.595.068.595.151zm7.32 0c.052.084-.061.15-.255.148-.281-.001-.304-.031-.122-.148.281-.182.265-.182.377 0zm-29.204.604c0 .168-.1.302-.226.302-.23 0-.31-.319-.126-.503.191-.191.352-.099.352.202zm1.057 0c0 .196-.101.302-.288.302-.213 0-.267-.078-.208-.302.044-.166.173-.302.287-.302s.209.136.209.302zm1.057 0c0 .196-.101.302-.288.302-.213 0-.268-.078-.209-.302.044-.166.173-.302.288-.302s.209.136.209.302zm29.58-.151c.163.105.014.146-.528.146s-.691-.042-.528-.146c.125-.08.362-.146.528-.146s.403.066.528.146zm-21.733.151c0 .083-.101.15-.226.15s-.227-.067-.227-.15.102-.151.227-.151.226.068.226.151zm18.374.708c-.146.038-.227.132-.18.208s.014.14-.074.14c-.179 0-.212-.199-.059-.352.056-.055.208-.093.34-.083.19.014.184.032-.027.087zm1.494.122c.202.201.155.226-.417.226-.598 0-.623-.016-.351-.221.374-.283.489-.283.767-.005zm1.412 0a.23.23 0 0 1-.229.226h-.003c-.192 0-.198-.038-.037-.221.247-.28.27-.28.27-.005zm-19.128.398c-.08.08-.546.125-1.036.1-.867-.045-.88-.052-.479-.257.326-.168.456-.173.634-.025.254.21.836.082.854-.189.008-.114.041-.106.093.024a.344.344 0 0 1-.065.348zm-12.621.016c-.143.534-.117.59.244.539.461-.065.591-.878.141-.878-.178 0-.33.134-.385.339zm1.263.114c0 .449.194.564.56.332.273-.174.059-.784-.276-.784-.215 0-.284.11-.284.453z"/></symbol><symbol id="icon-charity4" viewBox="0 0 118 32"><path d="m21.869 2.905-3.195.054v.704c0 .464.167.902.491 1.287.422.501.492.779.492 1.958 0 .755-.09 1.541-.198 1.744-.186.347-.132.365.835.27a19.747 19.747 0 0 0 1.618-.214l-.119.017c.452-.092.444-.112-.276-.736-.626-.541-.72-.722-.608-1.17.176-.701.518-.678.518.037 0 .311.126.67.281.798.24.199.291-.043.345-1.647.039-1.197-.009-1.854-.134-1.808-.109.039-.337 0-.509-.088-.36-.185-1.162-.021-1.162.236 0 .096.354.174.786.174.826 0 1.065.274.393.45-.435.114-1.769-.236-1.769-.464 0-.08.409-.384.909-.677.669-.393.947-.47 1.056-.293.106.171.186.177.282.022.074-.12.29-.218.48-.218.314 0 .337.203.258 2.264-.078 2.046-.055 2.252.239 2.139.465-.178.707-.725.565-1.275-.11-.424-.088-.446.207-.204.504.413.396.909-.339 1.554-.566.496-.627.628-.4.856.176.176.602.245 1.231.202l.962-.066.133-1.888c.133-1.876.314-2.403.832-2.403.184 0 .271-.246.271-.764 0-.718-.039-.77-.639-.836-.351-.039-2.076-.047-3.833-.016zm3.162 1.847c-.348.385-.975.462-1.429.175-.208-.132-.091-.214.447-.314.595-.112.687-.187.501-.411-.171-.207-.294-.219-.494-.054-.146.122-.395.172-.551.112s-.323-.004-.368.125c-.047.129-.163.16-.259.069-.099-.093.07-.36.388-.614l.561-.449.764.501c.721.472.746.521.44.859zm60.32 1.381c-.391.391-.285 1.296.182 1.547.641.343 1.351-.055 1.351-.756 0-.659-.317-1.027-.884-1.027-.228 0-.519.106-.649.236zm21.83-.097c-.441.085-.442.101-.442 3.877 0 3.54.027 3.828.408 4.312.316.402.579.518 1.179.518.608 0 .772-.074.772-.349 0-.192-.176-.501-.393-.687-.368-.315-.393-.58-.393-4.073 0-4.086.08-3.831-1.13-3.598zM6.484 6.634c-.012.27-.051.525-.115.77l.006-.026c-.085.314.044.473.592.734.445.212.7.472.7.713 0 .374-2.331 8.289-4.036 13.697-.522 1.66-1.03 2.911-1.268 3.127-.267.241-.397.606-.397 1.114v.756h8.256v-.668c0-.556-.116-.737-.688-1.075-.471-.277-.688-.548-.684-.854.005-.49 3.039-11.127 3.227-11.315.064-.064.198-.034.3.068s.619.154 1.152.117c.8-.055 1.008-.15 1.186-.541.208-.458.189-.474-.578-.474-.479 0-.746-.078-.673-.197.068-.108.457-.197.866-.197.472 0 .864-.132 1.07-.359.454-.502.415-.588-.314-.678-.578-.072-.563-.082.163-.112.576-.022.932-.171 1.268-.528l.466-.497-1.317-1.223c-1.174-1.09-1.317-1.304-1.317-1.96v-.737h-3.931c-3.612 0-3.931.028-3.934.344zm24.339.579c-.058.89-.112.968-1.239 1.779-.649.467-1.389.936-1.644 1.042l-.464.195.496.389c.294.23.803.392 1.25.396.611.005.689.044.41.207-.19.111-.433.147-.541.08s-.195.004-.195.155c0 .464.647.894 1.475.977l.786.08-.733.033c-.708.032-.725.05-.509.524.175.384.37.492.892.492.395 0 .618.08.546.197-.067.108-.303.197-.524.197-.286 0-.368.09-.283.311.066.171.12.392.12.492s.265.18.59.18c.379 0 .59-.1.59-.281 0-.359 1.002-1.156 1.2-.954.212.218 2.725 9.791 2.867 10.922.114.914.101.946-.5 1.173-.543.205-.618.324-.618.976v.743h8.059v-.598c0-.328-.171-.837-.38-1.13s-.908-2.39-1.552-4.66c-3.141-11.063-3.39-12.016-3.248-12.389.05-.13.313-.337.583-.461.429-.196.484-.33.432-1.059l-.06-.835-7.743-.106-.06.931zm14.585 3.303v4.03h1.769V6.487h-1.769v4.029zm10.468-3.612c-.564.163-.639.264-.639.872 0 .431-.111.731-.294.802-.163.062-.295.272-.295.464s.133.402.295.464c.236.091.295.532.297 2.233.002 1.165.069 2.216.148 2.335.388.581 1.951.888 2.558.503.41-.261.018-.916-.547-.916-.49 0-.492-.005-.548-2.113l-.056-2.113h.477c.432 0 .716-.319.716-.803 0-.099-.265-.18-.59-.18-.568 0-.59-.033-.59-.885 0-.486-.067-.876-.147-.867a9.607 9.607 0 0 0-.855.221l.069-.018zm26.045.111c-.245.064-.344.288-.344.782 0 .527-.094.717-.393.795a.527.527 0 0 0-.393.49v.001c0 .223.167.432.393.492.364.095.393.268.393 2.329 0 2.078.029 2.247.437 2.533.432.304 1.62.41 2.179.196.442-.17.17-.872-.339-.872-.757 0-.901-.367-.901-2.3 0-1.811.005-1.828.485-1.828.278 0 .571-.162.688-.38.292-.544.273-.571-.435-.639-.611-.059-.638-.098-.638-.898 0-.871-.141-.958-1.131-.699zM49.192 8.656c-.431.173-.443.255-.443 3.034v2.856h1.573v-2.155c0-1.973.034-2.174.403-2.372a1.61 1.61 0 0 1 .836-.155c.413.059.434.162.487 2.372l.056 2.309h1.56v-2.346c0-1.29-.087-2.575-.193-2.854-.347-.913-1.46-1.064-3.002-.409-.245.104-.344.056-.344-.169 0-.35-.266-.382-.934-.113zm10.861-.027c-.217.096-.614.411-.882.699-.407.438-.5.762-.56 1.957-.114 2.266.807 3.454 2.677 3.456 1.01.001 2.205-.46 2.205-.849 0-.435-.544-.807-.836-.572-.135.109-.517.256-.848.326-.763.163-1.658-.473-1.658-1.178 0-.47.027-.477 1.769-.477h1.769v-.694c0-.859-.401-1.84-.954-2.332-.466-.415-2.053-.614-2.682-.336zm5.012-.001c-.271.076-.483.243-.472.374s.033 1.431.049 2.891l.029 2.653h1.573v-2.123c0-2.258.121-2.595.929-2.595.42 0 .84-.597.84-1.192 0-.327-.916-.195-1.425.207-.495.389-.496.389-.598 0-.109-.415-.16-.427-.925-.215zm4.325 0c-.271.076-.483.243-.472.374s.033 1.431.049 2.891l.029 2.653h1.573v-2.155c0-1.973.034-2.174.403-2.372a1.61 1.61 0 0 1 .836-.155c.413.059.434.162.487 2.372l.056 2.309h1.363v-2.64c0-2.137-.058-2.699-.309-2.949-.498-.498-1.226-.58-2.104-.235-.72.283-.834.285-.98.025-.178-.32-.201-.323-.932-.12zm6.733.151c-.874.31-.991.533-.57 1.087.238.313.31.313 1.174.002 1.029-.37 1.562-.209 1.669.506.054.358-.074.423-1.075.549-1.479.185-2.229.862-2.229 2.015 0 1.489 1.294 2.224 2.939 1.667.739-.25.871-.247 1.173.027.312.283.376.271.753-.133.368-.393.382-.485.133-.824-.2-.272-.281-.959-.281-2.394 0-1.939-.018-2.027-.517-2.419-.623-.49-1.92-.523-3.168-.081zm9.631-.187c-.435.083-.442.133-.442 3.02v2.935h1.376v-3.046c0-2.321-.058-3.041-.246-3.021-.135.015-.444.065-.688.112zm3.568.141c-.955.416-1.455 1.407-1.454 2.887 0 .898.11 1.434.384 1.884 1.006 1.648 3.532 1.648 4.538 0 .539-.885.532-2.94-.014-3.835-.662-1.087-2.17-1.496-3.454-.936zm5.463-.113c-.25.07-.449.194-.442.275s.012 1.385.012 2.899v2.752h1.573v-2.155c0-1.973.034-2.174.403-2.372a1.61 1.61 0 0 1 .836-.155c.413.059.434.162.487 2.372l.056 2.309h1.363v-2.568c0-1.413-.09-2.736-.199-2.94-.288-.538-1.356-.68-2.264-.3-.678.283-.776.284-.926.016-.181-.323-.21-.327-.898-.133zm6.695.159c-.874.31-.991.533-.57 1.087.238.313.31.313 1.174.002 1.029-.37 1.562-.209 1.669.506.054.358-.074.423-1.075.549-1.467.184-2.229.864-2.229 1.993 0 1.533 1.241 2.266 2.89 1.706.794-.27.915-.269 1.222.009.312.283.376.271.753-.133.368-.393.382-.485.133-.824-.2-.272-.281-.959-.281-2.394 0-1.939-.018-2.027-.517-2.419-.623-.49-1.92-.523-3.168-.081zm-83.656.549c-.989.353-1.113.502-.411.496.315-.002.794-.177 1.065-.389.574-.45.39-.48-.654-.108zm8.603.212c.209.159.652.282.983.273l.601-.016-.59-.27c-.324-.149-.766-.272-.982-.272-.389-.003-.389.001-.012.285zm-7.753.092c-.254.165-.249.191.038.194.183.002.387-.086.453-.194.154-.249-.106-.249-.491 0zm.891-.01c-.111.179.983.168 1.163-.012.063-.063-.151-.123-.474-.132s-.634.056-.688.144zm42.158.207c.216.216.393.57.393.786 0 .341-.131.393-.983.393s-.983-.052-.983-.393c0-.41.642-1.179.983-1.179.108 0 .373.176.59.393zm29.492.105c.358.432.474 2.087.202 2.909-.393 1.19-1.401 1.183-1.795-.012-.258-.782-.123-2.501.229-2.925.302-.364 1.051-.349 1.364.027zm-73.45.241c-.23.037-.621.284-.869.549-.421.448-.426.481-.073.475.339-.005 1.608-.929 1.433-1.043-.039-.027-.26-.016-.49.02zm1.007.047c-.067.108-.033.197.076.197s.25-.089.317-.197c.068-.108.034-.197-.075-.197s-.25.089-.318.197zm.983.196c-.067.108-.027.197.087.197s.208-.089.208-.197-.039-.197-.087-.197c-.048 0-.141.089-.208.197zm.803.127c-.167.437-.152.463.279.463.216 0 .393-.123.393-.273 0-.393-.536-.544-.672-.189zm.999-.193c-.24.24-.135.656.165.656.164 0 .294-.175.294-.393 0-.391-.209-.511-.459-.262zm5.57.34c0 .043.133.129.294.191s.295.027.295-.078c0-.104-.133-.19-.295-.19s-.294.035-.294.077zM15.855 11.76c-.438.485-.41.664.094.588.231-.035.551-.261.712-.505.27-.408.262-.443-.094-.443-.213 0-.533.162-.712.359zm4.392-.135c0 .123-.154.342-.344.486-.309.234-.279.261.294.267.352.004.639-.075.639-.174s.054-.321.12-.492c.085-.223.002-.311-.295-.311-.228 0-.414.101-.414.224zm.983-.044c0 .1-.054.321-.12.492-.089.232.005.311.369.311.389 0 .487-.1.487-.491 0-.35-.106-.492-.368-.492-.203 0-.368.081-.368.18zm6.712.331c.281.281.657.48.837.442.548-.115-.175-.953-.823-.953h-.525l.511.511zm50.49.655c0 1.097-1.183 1.636-1.597.727-.332-.73.071-1.303.916-1.303.622 0 .681.05.681.576zm25.358 0c0 .316-.139.714-.309.884-.593.594-1.46.252-1.46-.576 0-.589.374-.884 1.121-.884.586 0 .648.056.648.576zm-75.287.194c0 .517.287.803.803.803.531 0 .551-.029.341-.492-.217-.475-1.144-.727-1.144-.311zm-13.556.397c-.295.551-.264.603.363.603.448 0 .586-.102.661-.492.078-.41.018-.491-.364-.491-.251 0-.549.171-.66.38zm1.265.027c-.071.225-.082.454-.026.511.169.17.467-.1.578-.523.141-.536-.381-.525-.552.012zm2.986-.277c-.253.254-.125.422.482.634.711.249.96.149.96-.383 0-.301-.138-.381-.656-.381-.36 0-.714.059-.786.131zm1.639.36c0 .586.299.643.582.112.283-.528.26-.602-.189-.602-.288 0-.393.131-.393.491zm-2.506-.164c-.356.144-.302.4.108.506.24.063.362-.024.38-.272.028-.372-.053-.411-.488-.235zm6.721.084c-.179.29.006.419.493.343.413-.065.413-.069.026-.307-.266-.165-.432-.176-.518-.036zm1.682.179c0 .108.093.197.208.197s.154-.089.087-.197c-.068-.108-.161-.197-.208-.197s-.087.089-.087.197zm-13.957 1.06c0 .541.411.762 1.097.59.337-.085.475-.256.475-.59 0-.417-.088-.47-.786-.47s-.786.053-.786.47zm1.9-.34c-.072.072-.131.293-.131.492 0 .269.149.36.59.36.498 0 .59-.077.59-.491 0-.384-.101-.492-.459-.492-.252 0-.518.059-.59.131zm1.365.18c-.218.565-.127.672.569.672.748 0 .89-.294.344-.71-.463-.35-.769-.338-.912.037zm2.632-.101c0 .116.162.159.36.096.223-.07.496.037.719.282.478.528.69.499.69-.095 0-.452-.072-.492-.885-.492-.496 0-.884.092-.884.209zm1.966.282c0 .43.085.491.688.491.77 0 .858-.177.328-.657-.544-.492-1.017-.415-1.017.166zm4.521 0c0 .392.099.491.492.491s.491-.099.491-.491c0-.393-.098-.492-.491-.492s-.492.099-.492.492zm1.507-.361c-.071.072-.131.293-.131.492 0 .253.146.36.492.36.392 0 .491-.099.491-.491 0-.346-.107-.492-.36-.492-.198 0-.42.059-.492.131zm1.414.269c.255.213.565.384.688.38s.067-.097-.124-.208c-.192-.112-.297-.285-.234-.387s-.09-.182-.34-.178l-.454.006.464.387zm-3.396.164c-.084.137-.101.303-.036.368.176.176.368-.083.272-.368-.067-.199-.112-.199-.237.001zm-7.191.223c0 .108.271.197.602.197.35 0 .55-.082.479-.197-.067-.108-.337-.197-.601-.197s-.48.089-.48.197zm11.695 0c.068.108.205.197.307.197s.185-.089.185-.197-.138-.197-.306-.197c-.169 0-.252.089-.186.197zm-8.474.675c-.224.583.079.926.758.86.536-.051.641-.143.641-.553s-.105-.502-.641-.553c-.441-.042-.677.034-.758.246zm1.693.308c0 .358.081.562.197.492.108-.068.197-.288.197-.492s-.089-.424-.197-.491c-.115-.071-.197.133-.197.491zm2.165-.05c.003.421.046.475.194.246.249-.385.249-.786 0-.786-.108 0-.196.243-.194.54zm.587-.048c0 .414.091.491.59.491s.59-.077.59-.491c0-.415-.091-.492-.59-.492s-.59.077-.59.492zm1.376 0c0 .414.091.491.59.491s.59-.077.59-.491c0-.415-.091-.492-.59-.492s-.59.077-.59.492zm1.376.004c0 .485.012.488.491.175.271-.177.492-.4.492-.496s-.221-.174-.492-.174c-.394 0-.491.098-.491.496zm2.702.006c-.088.461-.045.497.517.442.464-.046.629-.167.677-.502.053-.373-.028-.443-.517-.443-.466 0-.6.099-.677.502zm-17.802.137c.05.355.208.454.8.503.736.061.842-.048.617-.634-.077-.2-.36-.311-.799-.311-.594 0-.673.057-.618.443zm1.769 0c.048.339.212.456.701.504.352.034.639-.026.639-.132 0-.535-.283-.815-.821-.815-.492 0-.572.069-.519.443zm1.488.049c.078.403.208.491.732.491.574 0 .628-.048.544-.491-.078-.404-.208-.492-.732-.492-.574 0-.628.048-.544.492zm1.621 0c0 .387.1.491.471.491.378 0 .464-.096.442-.491-.022-.37-.138-.492-.471-.492-.341 0-.442.112-.442.492zm-2.752.841c0 .346.636 1.027.961 1.027.517 0 .611-.18.37-.708-.154-.336-.375-.472-.774-.472-.306 0-.558.069-.558.153zm1.609.339c.163.356.378.491.783.491.618 0 .649-.052.354-.602-.13-.244-.41-.38-.782-.38-.546 0-.566.027-.355.492zm1.34-.38c0 .404.478.871.891.871.543 0 .571-.06.281-.602-.18-.337-1.172-.565-1.172-.269zm2.949.38c0 .41.093.491.569.491.52 0 .807-.285.807-.803 0-.099-.31-.18-.688-.18-.603 0-.688.061-.688.492zm1.572 0c0 .394.098.491.496.491.485 0 .488-.012.175-.491-.177-.271-.4-.492-.496-.492s-.174.221-.174.492zm1.702-.133c-.422.467-.41.624.047.624.205 0 .426-.14.491-.311.283-.736-.004-.902-.538-.313zm.984-.228c-.072.072-.131.294-.131.492 0 .249.145.36.47.36.426 0 .709-.321.709-.803 0-.207-.851-.247-1.049-.049zm1.276.374c-.218.478-.203.501.291.442.326-.039.581-.228.684-.505.138-.378.096-.442-.292-.442-.296 0-.533.175-.683.505zm1.283-.377c-.074.074-.134.302-.134.507 0 .292.119.36.538.312.325-.038.565-.199.604-.406.048-.251-.023-.309-.264-.217-.18.07-.392.023-.47-.102s-.201-.168-.274-.094zm2.055.121c-.134.134-.342.243-.463.243s-.256.11-.301.245c-.141.421.709.273.943-.164.261-.487.162-.666-.179-.325zm.57.131c-.3.56-.258.635.314.567.285-.035.649-.262.81-.505.282-.426.27-.442-.314-.442-.399 0-.677.131-.81.38zm-17.17.15c.184.497.454.643 1.205.646.565.003.645-.057.59-.44-.053-.377-.199-.451-.994-.502-.828-.053-.917-.02-.801.295zm7.138.256c0 .108.093.197.208.197s.154-.089.087-.197c-.068-.108-.161-.197-.208-.197s-.087.089-.087.197zm2.162.998c0 .469.077.59.344.538.208-.039.368-.279.407-.604.049-.433-.017-.538-.345-.538-.322 0-.406.124-.406.604zm1.103-.294c-.201.523-.134.869.168.869.286 0 .695-.57.695-.97 0-.33-.73-.244-.863.102zm1.076.132c-.311.822.334 1.048.857.3.422-.602.386-.742-.191-.742-.336 0-.552.144-.666.442zm1.348-.028c-.166.31-.165.471.006.639.173.169.323.11.608-.24.208-.255.379-.543.379-.639 0-.35-.779-.163-.994.24zm1.099.028c-.284.403-.284.448 0 .507.459.097.825-.09 1.07-.546.191-.358.159-.404-.272-.404-.282 0-.618.186-.798.442zm1.377-.001c-.19.272-.23.467-.102.509.336.112.742-.115.974-.547.184-.345.158-.404-.173-.404-.214 0-.528.198-.698.442zm1.177.001c-.294.416-.287.446.103.507.404.063 1.169-.45 1.169-.784 0-.358-.975-.146-1.273.276zm-15.632.245c.336.358.666.492 1.213.492.809 0 .886-.102.479-.639-.186-.243-.537-.344-1.208-.344h-.946l.462.491zm2.013-.048c.287.434 1.328.738 1.328.388 0-.326-.711-.83-1.169-.83-.423 0-.433.027-.159.442zm1.376 0c.277.421 1.336.745 1.322.406-.016-.403-.578-.848-1.072-.848-.518 0-.529.02-.25.442zm1.376 0c.266.402 1.132.741 1.132.442 0-.429-.472-.885-.915-.885-.483 0-.494.022-.217.442zm1.328-.277c0 .423.253.816.526.816.413 0 .247-.864-.182-.946-.189-.036-.344.022-.344.13zm.983.014c0 .44.267.803.59.803.378 0 .584-.341.446-.737-.098-.281-1.036-.34-1.036-.066zM64.672 20.1v1.457l-1.032-.085c-.854-.07-1.129-.007-1.596.361-1.491 1.177-1.488 4.415.004 5.393.573.375 1.8.433 2.399.112.276-.148.422-.155.422-.023 0 .112.287.204.639.204h.638l-.068-4.275c-.037-2.352-.081-4.287-.099-4.302s-.317-.088-.668-.163l-.639-.137v1.456zm3.145-1.033c-.217.216-.393.462-.393.546 0 .356.641 1.027.98 1.027.472 0 .986-.513.986-.983 0-.433-.503-.983-.899-.983-.154 0-.457.177-.674.393zm14.644-.186-.59.172.099 3.91c.112 4.456.145 4.558 1.499 4.558.724 0 .86-.061.86-.386 0-.213-.177-.481-.393-.597-.372-.199-.393-.411-.393-4.037 0-4.122.051-3.949-1.082-3.62zm-67.101.328c-.446.084-.437.106.236.563.67.455 1.495.617 1.765.346.153-.153-1.029-1.063-1.33-1.025a17.63 17.63 0 0 0-.671.115zm1.545.007c0 .366 1.503 1.104 1.677.825.064-.104.354-.132.645-.062l.528.127-.476-.519c-.456-.497-.997-.694-.997-.362 0 .087.106.263.236.393.144.144.156.236.03.236-.112 0-.365-.177-.561-.393-.344-.38-1.081-.547-1.081-.244zm2.556.018c0 .187.652.816.847.816.07 0 .027-.221-.096-.492-.209-.459-.751-.694-.751-.325zm.982.014c0 .403.255.803.513.803.297 0 .34-.187.154-.672-.126-.33-.666-.435-.666-.131zm.983.187c0 .502.383.751.609.395.23-.363.118-.65-.282-.728-.218-.042-.327.069-.327.333zm.983.123c0 .271.089.492.197.492s.198-.111.199-.246c.003-.165.069-.148.201.049.167.25.259.221.609-.197.378-.45.383-.497.07-.56-.189-.038-.42.05-.512.197-.124.196-.168.201-.171.019-.002-.135-.135-.246-.298-.246-.183 0-.294.186-.294.491zm1.608 0c-.177.39-.17.492.037.492.262 0 .911-.606.911-.851 0-.356-.752-.07-.947.359zm1.064 0c-.176.271-.247.492-.154.492s.374-.221.628-.492c.356-.378.391-.491.155-.491-.169 0-.452.221-.629.491zm.866 0c-.457.486-.457.492-.045.492.229 0 .664-.218.967-.485l.551-.485-.506-.006c-.293-.004-.702.202-.968.485zm1.18 0c-.44.469-.443.492-.069.492.217 0 .601-.221.855-.492.44-.468.443-.491.069-.491-.217 0-.601.221-.855.491zm1.179 0c-.572.61-.184.663.737.101.758-.462.798-.592.182-.592-.251 0-.665.221-.919.491zm62.408-.013c-1.093.656-1.7 1.809-1.818 3.454-.144 2.016.539 3.513 1.934 4.233.734.379 2.602.368 3.353-.02.559-.288.578-.335.304-.737-.167-.248-.444-.4-.654-.361-1.585.299-1.947.261-2.473-.266-.599-.599-.841-1.738-.694-3.268.165-1.721 1.279-2.663 2.565-2.173.568.217.667.198.976-.177.454-.554.436-.664-.157-.933-.871-.398-2.455-.279-3.336.249zm-44.913.085c0 .469-.548 6.182-.686 7.153l-.105.737h1.723l.144-2.79c.08-1.534.209-2.662.29-2.506s.444 1.411.809 2.79l.663 2.506h1.418l.757-2.644c.417-1.454.83-2.598.919-2.544s.162.568.162 1.14c0 .571.058 1.716.127 2.544l.127 1.504h.758c.473 0 .758-.092.76-.246.002-.135-.148-1.992-.335-4.128l-.337-3.882h-2.2l-.675 2.549c-.372 1.402-.731 2.486-.799 2.408s-.272-.761-.453-1.518a57.995 57.995 0 0 0-.75-2.93l.127.523-.293-1.032h-1.076c-.917 0-1.075.054-1.075.366zm-21.808 1.065c-.366.348-.434.367-.339.092.14-.402-.07-.448-.448-.098-.211.197-.237.197-.125 0 .076-.135.054-.246-.048-.246-.294 0-.465.641-.214.796.164.101.156.162-.026.223-.193.064-.166.23.109.696.339.574.341.643.035 1.111-.18.274-.314.657-.297.851.061.709-.037 1.237-.229 1.237-.108 0-.197-.265-.197-.59 0-.327-.175-.764-.393-.983-.461-.461-.514-1.228-.108-1.564.242-.201.269-.135.175.442-.065.402-.021.733.108.814.148.091.218-.152.218-.75 0-.486-.089-.939-.197-1.006-.297-.184-.236-.492.099-.492.63 0 .197-.695-.46-.736-.314-.019-.426.057-.356.24.105.276-.333.56-.541.352-.218-.218-.12-.47.128-.327.135.078.178.068.096-.023s-.613-.184-1.179-.207c-.848-.035-.952-.006-.588.163.243.113.442.285.442.384s-.067.136-.147.086c-.081-.05-.119.753-.084 1.787.074 2.211-.026 2.734-.555 2.902-.305.096-.393.297-.393.897v.773h7.666v-.632l.001-.044c0-.401-.19-.758-.484-.985l-.003-.002c-.464-.383-.488-.506-.516-2.755l-.028-2.354.631-.032c.346-.017.733-.143.859-.279.232-.253.147-.238-.787.138-.221.089-.281.058-.185-.098.213-.346-.096-.278-.858.187-.495.301-.609.326-.414.092.418-.503.145-.549-.367-.062zm3.134-.252c-.177.114-.201.192-.06.194a.457.457 0 0 0 .354-.192l.001-.001c.151-.244.083-.244-.294 0zm-9.534.302c.325.149.811.272 1.082.272l.491.002-.491-.281a2.51 2.51 0 0 0-1.082-.272l-.589.009.589.27zm2.76.104c.212.343-.029.415-.299.09-.154-.187-.17-.3-.039-.3.115 0 .267.094.338.209zm36.162.513c-1.008.265-1.869 1.629-1.867 2.957.003 1.801.823 2.979 2.292 3.29.673.143 1.934-.125 2.483-.527.311-.228.315-.29.041-.679-.278-.397-.342-.408-.839-.149-1.086.567-1.965.243-2.298-.847-.133-.436-.109-.442 1.637-.442.974 0 1.819-.08 1.88-.176.251-.409-.302-2.293-.827-2.814-.544-.54-1.701-.824-2.502-.613zm11.745.01-.639.079v6.069h1.573v-3.145c0-1.73-.067-3.131-.147-3.114-.166.031-.435.071-.705.104l-.081.008zm3.567.127c-.975.442-1.455 1.418-1.455 2.958 0 2.186.748 3.067 2.597 3.058.714-.003 1.191-.121 1.525-.378.475-.366.478-.383.124-.775-.338-.373-.403-.379-.939-.102-1.046.54-1.735-.122-1.735-1.669 0-1.643.87-2.651 1.696-1.965.269.223.37.193.695-.208.331-.409.343-.506.096-.753-.402-.401-1.877-.496-2.605-.166zm5.414-.083a6.205 6.205 0 0 0-.969.4l.035-.016c-.406.217-.414.265-.141.794l.292.563.742-.38c.842-.431 1.397-.416 1.687.048.358.57.02.96-.831.96-1.033 0-1.75.346-2.095 1.011-.922 1.785.746 3.426 2.703 2.658.772-.304.848-.303 1.2.016.358.326.393.32.747-.118.278-.343.323-.55.178-.821-.107-.199-.194-1.215-.194-2.257 0-1.833-.019-1.915-.574-2.47-.467-.466-.735-.571-1.425-.558-.468.01-1.077.086-1.354.17zm19.971-.051c-1.223.337-1.875 1.413-1.875 3.099 0 1.991.925 3.056 2.653 3.056s2.654-1.065 2.654-3.056c0-1.259-.407-2.283-1.084-2.726-.515-.337-1.759-.535-2.348-.372zm5.005.04c-.341.095-.487.27-.477.57.007.239.029 1.584.049 2.989l.035 2.555h1.573v-2.222c0-2.361.114-2.693.929-2.693.42 0 .84-.597.84-1.192 0-.329-.918-.194-1.434.212l-.504.397-.125-.397c-.135-.424-.144-.427-.886-.22zm4.423-.019-.591.058.067 4.267c.037 2.346.085 4.285.108 4.309s.304-.026.622-.112c.552-.147.583-.212.638-1.339l.058-1.186.971.093c1.766.169 2.745-.944 2.746-3.121.002-2.22-1.183-3.416-2.922-2.95-.483.129-.929.165-.992.079s-.38-.129-.704-.097zm6.88.029c-.728.298-1.17.985-1.17 1.817 0 .936.508 1.452 1.627 1.654 1.065.192 1.411.429 1.411.966 0 .785-1.077.857-2.669.176-.117-.05-.314.132-.437.403-.203.445-.172.521.31.765 2.441 1.235 5.332-.375 4.29-2.39-.243-.47-.575-.683-1.599-1.024-1.106-.368-1.285-.491-1.232-.852.07-.496.856-.659 1.722-.358.49.171.578.137.78-.305.263-.579.302-.523-.554-.812-.763-.258-1.9-.276-2.478-.04zm-90.883 1.387c0 .271.045.381.099.246a.742.742 0 0 0-.002-.497l.002.005c-.054-.135-.099-.025-.099.246zm35.312-.157c.13.13.236.44.236.688 0 .411-.088.452-.996.452-.943 0-.989-.024-.861-.442.075-.243.224-.552.333-.688.25-.313.98-.318 1.288-.01zm40.881.354c.362.689.227 2.852-.207 3.285-.52.52-1.347.137-1.573-.73-.214-.818-.053-2.481.279-2.881.354-.427 1.202-.243 1.501.326zm10.71.313c.205.705.044 2.384-.263 2.754-.25.301-1.114.362-1.515.107-.182-.115-.238-.604-.197-1.712.053-1.411.101-1.571.528-1.784.644-.32 1.246-.055 1.446.635zm-45.08-.429c.143.171.208.82.172 1.699-.064 1.574-.304 1.913-1.2 1.688-.848-.213-1.126-2.083-.494-3.32.213-.417 1.196-.461 1.522-.067zm14.562 2.549c0 .769-.376 1.163-1.021 1.072-.331-.048-.47-.213-.517-.617-.082-.718.266-1.118.972-1.118.512 0 .566.064.566.664z"/></symbol><symbol id="icon-charity3" viewBox="0 0 318 32"><path d="M249.525.529c-6.869 1.167-11.108 5.156-11.123 10.464-.002 1.167.124 1.193 6.091 1.193 5.062 0 6.093-.134 6.093-.796 0-2.295 4.361-3.799 8.74-3.014 1.63.292 2.157.649 2.285 1.54.179 1.252-.725 1.613-9.171 3.657-10.223 2.473-15.1 6.699-15.1 13.084v2.481h37.086v-7.947l-10.729-.015c-6.498-.011-10.413-.203-9.926-.486.442-.258 3.541-.977 6.886-1.598 8.444-1.564 10.78-2.406 12.683-4.576 3.072-3.497 1.856-9.481-2.436-11.985C267.224.381 256.38-.633 249.526.53zm33.502 8.088-7.543 7.554v8.198h21.193v4.768h12.715v-4.768h5.297v-7.947h-5.297V1.06H290.57l-7.541 7.556zM3.181 11.787c.004 8.657.503 10.618 3.407 13.414 3.501 3.373 6.995 4.186 18.046 4.194 10.656.009 15.151-1.003 18.125-4.075 2.857-2.953 3.332-4.821 3.332-13.118V4.767H30.816l-.177 6.404c-.173 6.266-.209 6.432-1.664 7.682-2.114 1.818-6.566 1.818-8.681 0-1.455-1.25-1.491-1.417-1.664-7.682l-.177-6.404H3.178l.002 7.019zm45.028 5.167v12.183h15.364l.034-12.45 12.173 12.45h17.461V4.768H77.877v12.887L65.598 4.768H48.209v12.186zm47.151 0v12.183h15.364V4.768H95.36v12.186zm16.954-7.683v4.503h13.244v15.362h15.364V13.774h13.244V4.767h-41.852V9.27zm43.441 7.683v12.183h35.494v-7.415h-10.33c-8.83 0-10.332-.115-10.332-.796 0-.668 1.178-.794 7.418-.794h7.418v-5.828h-7.418c-7.063 0-7.418-.051-7.418-1.06 0-1.022.354-1.058 10.332-1.058h10.33V4.768h-35.494v12.186zm37.615.032v12.215l35.759-.329 2.795-1.549c3.206-1.775 4.614-3.744 5.444-7.614 1.393-6.502-1.865-12.284-7.942-14.089-2.374-.706-5.751-.853-19.465-.853H193.37v12.218zm103.306-4.536v3.972h-8.134l3.669-3.906c2.018-2.15 3.849-3.938 4.066-3.974.22-.036.399 1.722.399 3.908zm-75.174 1.79c.599.734.962 1.682.962 2.714a4.29 4.29 0 0 1-.974 2.729l.006-.008c-.934 1.154-1.461 1.265-6.889 1.429l-5.875.179v-8.687l5.884.201c5.404.186 5.965.303 6.886 1.442z"/></symbol><symbol id="icon-charity2" viewBox="0 0 64 32"><path d="M18.393 1.421c-.032.083-.043.41-.026.725l.033.574h1.387V1.333l-.668-.032c-.501-.023-.683.006-.726.119zm13.976.399c-.042.068-.083.442-.09.831l-.013.708-.8.066v1.361l.8.066.023 1.707.027 1.845c.003.102.191.13.723.107l.72-.031.029-1.834.029-1.833.795-.066v-1.28l-.791-.065-.031-.821-.031-.821-.657-.031c-.415-.02-.685.014-.734.092zM5.867 3.273a6.642 6.642 0 0 0-.59.27l.039-.018c-.337.169-.4.174-.452.038-.048-.123-.222-.151-.782-.127l-.722.031v7.04h1.493l.03-1.192.031-1.192.449.257c.875.5 2.269.194 2.904-.639.906-1.188.739-2.978-.365-3.923-.572-.489-1.491-.736-2.035-.546zm8.254.1c-1.785.633-2.372 3.034-1.076 4.4 1.343 1.416 3.768.985 4.515-.802.228-.545.188-1.659-.08-2.229-.565-1.202-2.085-1.822-3.359-1.37zm8.278-.08c-.801.263-1.456.85-1.759 1.577-.208.497-.205 1.642.006 2.146.372.892 1.284 1.512 2.35 1.598.831.067 1.596-.175 2.039-.644.378-.399.586-.767.49-.863-.137-.137-1.365-.061-1.572.096-.117.088-.435.156-.728.156-.434 0-.574-.053-.833-.311-.171-.172-.311-.363-.311-.425 0-.073.641-.122 1.84-.141l1.84-.029.033-.403c.08-.972-.546-2.111-1.401-2.547-.476-.243-1.548-.356-1.993-.21zm5.654 0c-.789.259-1.479.873-1.773 1.576-.213.509-.183 1.705.054 2.229.246.543 1.045 1.253 1.592 1.417a3.24 3.24 0 0 0 1.771-.006l-.023.006c.729-.219 1.686-1.235 1.686-1.791 0-.066-.316-.11-.784-.11-.645 0-.817.037-.974.211-.48.53-1.539.307-1.828-.385-.424-1.015.502-2.013 1.486-1.601.187.078.406.221.486.319.194.234 1.483.255 1.572.026.141-.368-.594-1.33-1.289-1.687-.459-.236-1.537-.347-1.977-.203zm-16.561.201c-.161.1-.327.279-.367.397-.064.186-.082.172-.134-.105-.06-.319-.062-.32-.806-.32h-.746l-.03 2.293c-.017 1.261-.004 2.404.03 2.538.056.23.105.243.777.213l.717-.031.053-1.458c.05-1.36.071-1.477.312-1.734a.794.794 0 0 1 .613-.274h.355V4.16c0-.815-.011-.853-.24-.851-.132.001-.372.085-.534.185zm6.855 2.563c0 2.868-.028 3.021-.59 3.161-.262.066-.272.098-.242.732l.032.663.609-.002c.657-.003.999-.181 1.412-.732.208-.279.221-.457.251-3.381l.031-3.086h-1.503v2.643zm5.432-1.315c.277.143.499.455.398.557-.023.023-.516.028-1.096.011l-1.054-.031.338-.346c.383-.393.891-.462 1.414-.191zm-16.99.157c.992.605.55 2.248-.605 2.248-.844 0-1.277-.436-1.277-1.286 0-.361.067-.509.363-.805.429-.429.98-.486 1.52-.157zm8.959.09c1.033.837.169 2.463-1.089 2.048-.794-.262-1.03-1.212-.46-1.86.29-.331.391-.377.826-.375.308.001.582.073.723.187zm9.212 6.583c-2.856.642-5.244 2.546-6.397 5.101-.777 1.721-.996 4.114-.539 5.887.83 3.222 3.352 5.759 6.545 6.583 1.219.314 3.292.311 4.498-.007 1.77-.468 3.564-1.604 4.693-2.972 2.389-2.896 2.733-6.947.875-10.271-.613-1.096-2.091-2.583-3.221-3.241a11.41 11.41 0 0 0-1.867-.826c-.883-.287-1.2-.335-2.453-.37-1.007-.028-1.648.007-2.133.116zm-21.487.398c-.147.21-.166 1.193-.166 8.48 0 8.101.004 8.247.213 8.457.194.194.356.213 1.767.213.867 0 1.645-.049 1.76-.11.197-.106.206-.258.206-3.52v-3.41h5.013v3.307c0 3.164.009 3.316.213 3.52.194.194.356.213 1.806.213 1.306 0 1.623-.03 1.76-.168.15-.149.168-1.075.168-8.582 0-8.211-.005-8.418-.206-8.526-.116-.062-.905-.11-1.797-.11-1.405 0-1.611.023-1.767.195s-.176.557-.176 3.253v3.058H7.254v-3.143c0-2.998-.009-3.148-.206-3.253-.116-.062-.908-.11-1.808-.11-1.533 0-1.608.01-1.766.237zm34.356-.077c-.16.161-.176.912-.176 8.535v8.36l.237.166c.188.132.555.166 1.76.166 2.107 0 1.95.235 1.95-2.92v-2.494l1.893-.054c1.36-.039 2.059-.105 2.48-.237 1.998-.622 3.605-2.254 4.103-4.166.21-.804.21-2.281 0-3.085-.25-.961-.774-1.854-1.54-2.623-.75-.754-1.381-1.151-2.398-1.512-.602-.214-.892-.232-4.389-.271-3.371-.037-3.762-.024-3.92.134zm13.664-.044c-.175.102-.186.621-.186 8.513 0 8.007.009 8.413.195 8.582.176.159.68.176 5.013.176 4.676 0 4.825-.006 5.032-.213.193-.193.213-.356.213-1.683 0-2.135.336-1.943-3.42-1.943h-3.087v-3.093h2.667c3.341 0 3.093.148 3.093-1.843 0-2.057.27-1.89-3.046-1.89h-2.714v-2.88h2.966c2.271 0 3.011-.033 3.157-.139.169-.124.189-.319.176-1.781-.009-1.002-.059-1.695-.129-1.781-.092-.111-1.094-.139-4.929-.136-3.071.001-4.881.042-5.001.112zm11.058.036c-.593.258-.723 1.081-.24 1.518.282.255.965.252 1.248-.003.503-.456.325-1.324-.319-1.549a3.981 3.981 0 0 0-.315-.105l-.035-.009-.339.147zm.908.343c.29.369.279.631-.041.951-.324.324-.661.334-.985.03-.31-.292-.316-.694-.015-1.015.316-.337.76-.322 1.04.034zm-.881.003c-.039.039-.071.255-.071.48 0 .292.045.409.16.409.088 0 .16-.058.16-.128 0-.1.028-.1.128 0 .07.07.183.128.25.128.156 0 .178-.643.029-.823-.12-.144-.536-.186-.656-.065zm.462.356c0 .058-.048.107-.107.107s-.106-.048-.107-.107a.107.107 0 0 1 .214 0zm-37.564 2.242c1.237.533 1.823 1.646 1.911 3.637.051 1.161.04 1.254-.173 1.466-.296.296-.498.287-.819-.034-.227-.227-.262-.359-.262-.992 0-.805-.101-.986-.548-.986-.554 0-.625.267-.625 2.349 0 1.968-.037 2.131-.48 2.131-.43 0-.479-.183-.501-1.861l-.021-1.606-.059 1.984c-.061 2.064-.124 2.336-.545 2.336-.474 0-.526-.222-.549-2.327l-.022-1.993-.058 1.76c-.032.968-.097 1.82-.144 1.893-.138.213-.691.164-.817-.073-.06-.114-.119-.966-.13-1.894l-.02-1.687-.06 1.237c-.061 1.273-.169 1.589-.536 1.589-.101 0-.268-.093-.371-.207-.169-.188-.183-.419-.14-2.427.053-2.438.139-2.866.724-3.575.801-.972 2.854-1.321 4.247-.721zm19.591.84c.789.364 1.227 1.085 1.227 2.022 0 .883-.417 1.589-1.185 2.005-.292.157-.663.202-1.935.233l-1.573.038v-4.5l1.52.002c1.249.002 1.596.038 1.947.2zm-14.454 2.144c.196.196.215.373.238 2.16l.023 1.947.032-1.772c.029-1.609.052-1.791.243-1.964.174-.157.258-.17.478-.07l.266.122v1.815c0 1.139.04 1.815.107 1.815.065 0 .107-.491.107-1.259 0-1.322.061-1.515.48-1.515.452 0 .48.144.48 2.509 0 2.672-.079 3.02-.858 3.799-.62.62-1.275.838-2.517.838-1.583 0-2.487-.545-3.094-1.867-.26-.566-.299-.795-.338-1.99-.043-1.34-.042-1.35.22-1.523.198-.129.333-.148.531-.072.338.128.402.303.402 1.086 0 .683.225 1.058.632 1.058.489 0 .541-.214.541-2.224 0-1.999.08-2.363.523-2.363.45 0 .536.298.571 1.978l.033 1.595.023-1.947c.021-1.786.041-1.964.237-2.16.117-.117.261-.213.32-.213s.203.096.32.213z"/></symbol><symbol id="icon-charity1" viewBox="0 0 145 32"><path d="M17.845 2.186c-.45.274-.973.654-1.162.842s-.525.344-.748.344c-.664 0-3.449 1.415-4.532 2.303-.586.48-1.277.827-1.647.827-.35 0-.847.112-1.103.249-.495.265-.63 1.066-.222 1.318.146.09-.082.744-.575 1.64-1.342 2.441-1.7 3.834-1.682 6.545.017 2.688.621 4.719 1.994 6.714 2.345 3.409 6.678 5.517 11.338 5.517 3.027 0 6.909-1.135 6.83-1.996-.018-.199-.33-1.337-.692-2.529-.854-2.811-.972-6.556-.264-8.429.489-1.293 2.122-3.739 3.106-4.655l.604-.56.561 1.404c.477 1.193.561 1.838.566 4.293.005 2.666-.047 3.001-.666 4.325-.369.788-.951 1.801-1.292 2.248-.466.611-.552.881-.345 1.089.357.357 1.141-.585 2.295-2.752 1.938-3.642 2.033-7.563.279-11.555-.113-.256.125-.737.709-1.436l.879-1.05-.532-.431c-.706-.571-1.41-.543-2.077.083l-.547.514-1.241-1.116c-1.201-1.079-3.882-2.56-4.636-2.56-.203 0-.687-.269-1.075-.595-1.415-1.191-2.808-1.391-4.12-.591zm-2.119 3.438c-.169 1.63.222 2.837 1.306 4.037 2.472 2.736 6.356.86 6.414-3.096.01-.697.078-1.267.15-1.267.276 0 2.087 1.304 2.947 2.123 1.077 1.025 1.042 1.092-1.4 2.691-4.069 2.662-7.451 2.565-11.328-.326-.777-.579-1.774-1.434-2.216-1.9l-.803-.847.803-.601c.917-.687 2.056-1.29 3.309-1.75.476-.176.885-.327.909-.337.023-.009-.017.564-.09 1.273zm-4.487 5.754c3.241 3.767 3.288 3.847 3.142 5.299-.07.694-.298 2.021-.507 2.948s-.382 2.586-.384 3.686l-.004 2-.741-.435c-.408-.239-1.317-1.037-2.019-1.772-3.354-3.51-4.185-8.256-2.244-12.811.268-.629.566-1.143.663-1.143s1.04 1.002 2.094 2.227zm25.31 3.928c-.845.458-1.15 1.049-1.15 2.225 0 1.233.796 2.041 2.691 2.733 1.487.542 2.004 1.068 1.636 1.664-.319.515-2.097.396-3.304-.222l-1.023-.524v.932c0 .85.081.969.944 1.358.711.32 1.374.401 2.677.328 1.591-.089 1.789-.161 2.426-.875.526-.588.694-1.017.694-1.76 0-1.257-.847-2.098-2.85-2.829-2.764-1.008-1.809-2.474 1.045-1.608 1.583.48 1.564.485 1.564-.365 0-.611-.141-.793-.835-1.084-1.078-.45-3.666-.434-4.517.027zm35.453 4.079v4.455h1.926v-1.927c0-1.605.081-2.006.482-2.408 1.162-1.162 1.927-.184 1.927 2.462v1.872h1.982l-.096-2.397c-.085-2.124-.162-2.467-.672-3.01-.68-.724-2.224-.843-3.088-.239l-.535.375v-3.639h-1.926v4.455zm20.31-3.872c-2.622 1.221-3.372 4.759-1.452 6.854 1.248 1.36 4.496 1.913 6.667 1.134.764-.274.849-.399.918-1.338.067-.92.027-1.014-.361-.85-2.192.926-3.025 1.028-4.238.514-1.206-.51-1.739-1.258-1.739-2.441s.532-1.931 1.739-2.442c1.025-.433 1.851-.403 3.379.125l1.263.436v-.939c0-.844-.084-.974-.835-1.288-1.337-.559-3.88-.447-5.343.235zm7.623 3.872v4.455h1.927v-2.033c0-1.828.054-2.071.535-2.408.666-.467.784-.466 1.254.004.284.284.378.883.378 2.408v2.03h1.97l-.082-2.55c-.075-2.339-.129-2.588-.651-3.01-.716-.58-2.354-.613-2.964-.061-.423.382-.44.326-.44-1.445v-1.843h-1.927v4.455zm7.524-4.176c-.689.689-.075 1.755.927 1.606.731-.109 1.137-.795.795-1.343-.324-.517-1.316-.669-1.722-.263zm3.072 4.176v4.455h1.927v-8.91h-1.927v4.455zm7.706-2.934v1.52l-1.441-.105c-1.392-.101-1.469-.075-2.316.772-.851.851-.874.917-.77 2.352.094 1.29.205 1.562.876 2.162.823.736 2.259.933 3.184.437.321-.172.466-.172.466 0 0 .137.379.249.843.249h.843v-8.91h-1.685v1.52zm-50.691.919c-1.307 1.387-1.393 1.539-.903 1.61.507.073.542.194.542 1.877 0 1.59.069 1.87.591 2.391.451.452.846.591 1.666.591 1.503 0 1.837-.178 1.837-.983 0-.642-.044-.674-.618-.456-1.145.435-1.55-.041-1.55-1.82v-1.557h1.083c.996 0 1.084-.049 1.084-.602 0-.552-.089-.601-1.071-.601h-1.07l-.074-.991-.075-.99-1.445 1.531zm-22.728.497c-1.314.224-1.713.556-1.713 1.42v.685l.83-.49c.963-.568 2.377-.546 2.487.039.05.263-.381.552-1.436.963-1.873.73-2.455 1.53-1.873 2.575.296.531.566.677 1.375.736.554.04 1.239-.051 1.523-.204.373-.2.59-.204.78-.013.284.284 1.578.353 2.194.116.209-.081.38-.395.38-.699 0-.435-.103-.527-.481-.429-.453.118-.482.008-.482-1.819 0-1.66-.074-2.013-.501-2.412-.593-.554-1.648-.714-3.083-.468zm4.547.063c0 .076.604 1.474 1.343 3.108 1.219 2.698 1.393 2.959 1.9 2.863.444-.084.822-.675 1.848-2.885-.002.113.459-.874.912-1.866l.464-1.136c.047-.123-.382-.19-.954-.148-1.035.075-1.043.083-1.629 1.583-.324.828-.651 1.445-.725 1.37s-.366-.753-.646-1.507c-.498-1.34-.532-1.372-1.511-1.445-.551-.041-1.002-.012-1.002.064zm7.822.689c-1.464 1.465-1.269 3.708.412 4.733.911.556 3.149.667 4.157.209.738-.337.926-1.588.192-1.282-1.4.584-1.722.657-2.288.514-.739-.185-1.384-.772-1.384-1.258 0-.273.449-.344 2.167-.344 2.397 0 2.455-.047 1.835-1.532-.532-1.274-1.446-1.839-2.975-1.839-1.169 0-1.405.089-2.116.799zm23.427-.423c-1.86 1.009-1.829 4.307.049 5.278.911.471 3.201.47 4.113-.002.483-.25.71-.55.71-.937v-.57l-.893.456c-1.222.623-2.135.579-2.85-.136-.325-.325-.591-.704-.591-.843 0-.156.82-.252 2.167-.252 2.162 0 2.167-.001 2.167-.614 0-.915-.639-1.979-1.437-2.392-.89-.461-2.576-.455-3.436.012zm26.787 2.634v3.01h1.926v-6.02h-1.926v3.01zm13.966 0v3.01h1.927l.001-1.385c0-.972.148-1.626.496-2.195.459-.753.561-.801 1.424-.663.888.143.938.116 1.094-.596.207-.938-.086-1.236-1.11-1.137-.602.058-.945.284-1.356.896l-.549.817v-.878c0-.865-.016-.879-.964-.879h-.963v3.01zm6.318-2.186c-.832.762-.899.924-.899 2.162 0 1.185.088 1.426.771 2.109.656.657.984.786 2.201.875 1.922.14 3.168-.275 3.168-1.053 0-.669-.129-.699-.963-.222-.332.189-.851.348-1.156.353-.807.013-1.894-.619-2.042-1.186-.122-.466-.023-.492 1.976-.492 1.158 0 2.164-.059 2.237-.132.319-.319-.324-1.966-1.007-2.576-.617-.553-.958-.662-2.064-.662-1.171 0-1.427.094-2.224.824zm6.445 2.186v3.01h1.926v-2.03c0-2.127.278-2.787 1.173-2.787.802 0 .994.523.994 2.698v2.119h1.927v-2.419c0-2.247-.042-2.461-.591-3.01-.717-.717-2.368-.82-3.062-.192-.409.37-.44.37-.44 0 0-.305-.227-.399-.963-.399h-.963v3.01zm-73.912-1.798c.256.137.465.463.465.722 0 .407-.168.473-1.204.473-1.293 0-1.554-.337-.825-1.067.44-.439.911-.479 1.564-.129zm23.143.15c.812.735.549 1.046-.884 1.046-1.423 0-1.601-.205-.843-.963.586-.587 1.141-.613 1.727-.083zm47.501-.021c.729.729.467 1.067-.825 1.067-.883 0-1.204-.092-1.204-.344 0-.485.674-1.101 1.204-1.101.246 0 .618.171.825.378zm-13.006.009c.285.11.381.489.381 1.518 0 1.502-.269 1.948-1.173 1.948-.926 0-1.476-.657-1.476-1.764 0-1.491.952-2.207 2.268-1.702zm-71.38 2.494c0 .925-.827 1.453-1.392.887-.319-.319-.325-.431-.041-.773.264-.318.895-.691 1.372-.813.033-.009.06.305.06.698z"/></symbol><symbol id="icon-amazon" viewBox="0 0 106 32"><path d="M22.783 7.544v10.274a.628.628 0 0 1-.628.628h-3.243a.628.628 0 0 1-.628-.628V1.107c0-.347.281-.628.628-.628h3.001c.347 0 .628.281.628.628V3.46S23.614.103 26.798.103c0 0 3.149-.381 4.43 3.115 0 0 1.073-3.115 4.326-3.115 0 0 4.838-.288 4.838 4.718l.037 2.757v10.274a.628.628 0 0 1-.628.628h-3.243a.628.628 0 0 1-.628-.628L35.9 6.644c.092-2.538-1.961-2.353-1.961-2.353-2.584.046-2.335 3.288-2.335 3.288v10.274a.628.628 0 0 1-.628.628h-3.243a.628.628 0 0 1-.628-.628V6.898s.19-2.63-2.118-2.63c0 0-2.284-.3-2.203 3.276zm83.6-.031v10.273a.628.628 0 0 1-.628.628l-3.373.065a.628.628 0 0 1-.628-.628V6.897s.19-2.63-2.117-2.63c0 0-2.204-.109-2.204 4.015v9.535a.628.628 0 0 1-.628.628h-3.243a.628.628 0 0 1-.628-.628V1.106c0-.347.281-.628.628-.628h3.001c.347 0 .628.281.628.628v2.353S98.264.102 101.448.102c0 0 3.411-.517 4.559 3.05 0 0 .376.736.376 4.36zM82.966.034c-4.147 0-7.51 3.495-7.51 9.379 0 5.18 2.596 9.379 7.51 9.379 4.637 0 7.51-4.199 7.51-9.379 0-5.779-3.362-9.379-7.51-9.379zm2.618 9.587c0 2.215-.277 3.392-.277 3.392-.394 2.341-2.094 2.345-2.344 2.332-.27.011-1.985-.014-2.339-2.332 0 0-.277-1.177-.277-3.392v-.369c0-2.215.277-3.392.277-3.392.355-2.319 2.069-2.343 2.339-2.333.251-.012 1.95-.009 2.344 2.333 0 0 .277 1.177.277 3.392zm-12.01-6.184V1.039a.628.628 0 0 0-.628-.628h-10.72a.628.628 0 0 0-.628.628v2.379c0 .347.281.628.628.628h5.592l-6.619 9.602s-.261.389-.252.819v2.921s-.043 1.001 1.093.42c0 0 2.017-1.219 5.4-1.219 0 0 3.34-.042 5.567 1.324 0 0 .924.42.924-.504v-2.542s.084-.673-.798-1.093c0 0-2.563-1.408-5.925-1.177zm-57.793 12.02-1.015-1.545c-.323-.577-.3-1.223-.3-1.223V5.56C14.604-.6 7.775-.069 7.775-.069 1.704-.069.807 4.656.807 4.656c-.253.95.483.973.483.973l2.967.301s.506.116.69-.486c0 0 .391-2.061 2.575-2.061 2.377 0 2.353 2.04 2.353 2.04v1.708C5.13 7.29 2.93 8.607 2.93 8.607 0 10.268.184 13.568.184 13.568c0 5.376 5.122 5.145 5.122 5.145 3.276 0 5.214-2.399 5.214-2.399.577 1.016 1.638 1.984 1.638 1.984.531.576 1.084.092 1.084.092l2.4-2.053c.53-.393.138-.877.138-.877zm-8.876-.066c-1.541 0-2.114-1.531-1.858-3.036s1.586-2.688 4.828-2.653v.915c.115 3.997-1.687 4.774-2.97 4.774zm51.974.066-1.015-1.545c-.323-.577-.3-1.223-.3-1.223V5.56c.138-6.16-6.691-5.629-6.691-5.629-6.071 0-6.968 4.725-6.968 4.725-.253.95.483.973.483.973l2.967.301s.506.116.69-.486c0 0 .391-2.061 2.575-2.061 2.377 0 2.352 2.04 2.352 2.04v1.708c-4.745.159-6.945 1.476-6.945 1.476-2.93 1.661-2.746 4.961-2.746 4.961 0 5.376 5.122 5.145 5.122 5.145 3.276 0 5.214-2.399 5.214-2.399.577 1.016 1.638 1.984 1.638 1.984.531.576 1.085.092 1.085.092l2.399-2.053c.531-.393.139-.877.139-.877zm-8.876-.066c-1.541 0-2.114-1.531-1.858-3.036s1.586-2.688 4.827-2.653v.915c.115 3.997-1.686 4.774-2.969 4.774zM67.045 28.951s-.271.472.062.578c0 0 .377.147.846-.289 0 0 3.424-2.991 3.507-8.438 0 0 .025-.68-.248-.866 0 0-1.073-.949-4.931-.66 0 0-3.363.227-5.199 1.857 0 0-.165.144-.165.33 0 0-.04.401.97.227 0 0 3.363-.475 5.364-.227 0 0 1.032.124 1.321.475 0 0 .475.392.227 1.691 0 .001-.681 3.301-1.754 5.323z"/><path d="M66.367 23.726s.502.651-.308 1.212c0 0-8.657 6.924-23.192 6.924 0 0-14.962.738-27.456-10.613 0 0-.438-.385-.166-.742 0 0 .243-.329.872.029 0 0 11.753 7.323 27.188 7.323 0 0 10.728.415 21.734-4.291 0 0 .877-.454 1.328.158z"/></symbol><symbol id="icon-ibooks" viewBox="0 0 32 32"><path d="M20.352 1.6c2.88 0 4.352 0 5.888.48a6.054 6.054 0 0 1 3.648 3.648c.512 1.568.512 3.008.512 5.92v8.704c0 2.88 0 4.352-.48 5.888a6.054 6.054 0 0 1-3.648 3.648c-1.568.512-3.008.512-5.92.512h-8.704c-2.88 0-4.352 0-5.888-.48a6.325 6.325 0 0 1-3.68-3.68c-.48-1.536-.48-2.976-.48-5.888v-8.704c0-2.88 0-4.352.48-5.888a6.325 6.325 0 0 1 3.68-3.68c1.536-.48 2.976-.48 5.888-.48h8.704z"/><path d="M6.4 10.496s.928-2.4 4.672-2.4a4.833 4.833 0 0 1 4.704 3.136v13.44s-1.184-3.584-4.672-3.584c-2.528 0-4.32 1.632-4.32 1.632-.192.16-.384.064-.384-.192V10.496zm19.2 0v12c0 .256-.16.352-.384.192 0 0-1.792-1.632-4.32-1.632-3.456 0-4.64 3.584-4.64 3.584V11.2s.96-3.136 4.704-3.136c3.712 0 4.64 2.432 4.64 2.432z"/></symbol><symbol id="icon-bookshop" viewBox="0 0 34 32"><path d="M16.917 3.313c-.155.059-.965.443-1.802.852s-2.065 1.004-2.731 1.32c-1.023.484-2.663 1.322-4.363 2.226-.217.116-.97.508-1.673.871s-1.388.757-1.52.875c-.962.852-1.261 3.071-.726 5.377.093.403.197 1.011.231 1.351s.084.822.114 1.07c.029.247.08.906.113 1.463.102 1.75.256 3.116.34 3.03.026-.026.054-.164.063-.307l.018-.26 5.602 2.893c.696.359 1.52.786 1.829.948s1.044.543 1.633.844c.588.302 1.528.787 2.088 1.077s1.05.528 1.087.528c.046 0 .062-.086.051-.268l-.017-.268-.76-.395-2.111-1.091c-1.302-.672-1.919-.992-3.491-1.807l-3.997-2.069c-.557-.289-1.221-.631-1.476-.76l-.463-.236.006-.269c.004-.148.02-.269.036-.269s.475.231 1.02.514c.545.284 1.384.717 1.864.965l6.558 3.39c2.705 1.404 2.788 1.444 2.819 1.361a.847.847 0 0 0 .014-.294v.004c-.02-.233.306-.042-2.72-1.602-4.42-2.138-5.028-2.459-5.636-2.78l3.779 1.819c-.34-.178-1.076-.557-1.633-.844-4.678-2.259-5.232-2.55-5.784-2.841l4.096 1.968c-.372-.193-1.207-.626-1.858-.961l-2.533-1.312-.017-.313c-.009-.172.006-.314.034-.314s.212.085.411.189c.198.105 1.577.817 3.063 1.584 3.522 1.818 4.22 2.179 4.898 2.533.309.163 1.12.581 1.801.93s1.423.732 1.649.852c.452.239.484.228.452-.154l-.018-.215-1.155-.595a1560.594 1560.594 0 0 1-4.476-2.31c-.693-.363-3.505-1.814-5.094-2.631a41.477 41.477 0 0 1-1.602-.832l.322.161-.239-.136v-.679l.943.491 1.815.94c-8.867-4.199-7.52-3.491-6.173-2.785l10.282 4.909c.976.503 2.027 1.047 2.337 1.209 3.203 1.676 3.096 1.636 3.058 1.186-.02-.234.414.014-3.649-2.083a933.138 933.138 0 0 1-4.251-2.199c-.309-.162-1.12-.581-1.802-.932l-1.914-.988-.676-.351-.035-.243a2.336 2.336 0 0 0-.11-.445l.005.017c-.039-.102-.057-.2-.04-.217s1.154.539 2.526 1.235c1.372.695 4.192 2.119 6.267 3.164 2.348 1.182 3.82 1.956 3.901 2.048.773.885 1.032 3.197.542 4.85-.132.443-.366.9-.462.9-.075 0-2.522-1.226-9.901-4.962-1.46-.739-2.67-1.343-2.688-1.343s-.034.032-.034.071c0 .137.342.486.663.677.287.171 4.678 2.414 9.301 4.753.914.461 1.805.884 1.982.939s.481.099.676.099c.322 0 .409-.029.946-.316.324-.172.869-.446 1.21-.607 1.421-.672 9.99-4.989 10.23-5.155.539-.371.884-.972 1.069-1.861.16-.765.172-2.375.024-3.02-.117-.511-.475-1.51-.549-1.539-.028-.011-.036-.042-.02-.068s-.012-.196-.063-.375c-.079-.271-.101-.739-.135-2.775-.039-2.324-.074-2.786-.22-2.941-.022-.023-.03.116-.02.31l.02.351-2.916 1.471c-7.292 3.675-9.452 4.77-9.518 4.821-.087.068-.094.548-.009.548.035 0 1.383-.668 2.998-1.484l9.438-4.77-.001.355v.355l-2.828 1.422c-7.106 3.573-9.502 4.787-9.582 4.853-.082.068-.129.564-.053.564.037 0 4.068-2.017 6.076-3.039a1540.1 1540.1 0 0 1 6.337-3.197c.04-.018.132 1.024.135 1.52.001.215-.026.348-.083.401-.046.044-2.263 1.176-4.926 2.517s-5.449 2.747-6.192 3.125l-1.351.688-.018.209c-.035.396-.027.396 1.014-.134-18.975 8.708-15.348 6.847-11.717 4.992l22.782-10.57c.365-.179.408-.217.414-.368l.007-.169.043.169c.024.092.046.273.05.4a.866.866 0 0 0 .152.446l-.002-.003c.156.229.145.329-.019.181-.095-.086-.311.013-3.449 1.595C66.84-1.18 64.761-.116 62.682.947L20.504 20.53l-2.999 1.507-.111-.14c-.192-.244-.397-.727-.547-1.288-.13-.486-.145-.65-.148-1.583-.004-1.139.091-1.705.391-2.364.307-.672.308-.673 1.849-1.445 3.248-1.628 10.894-5.492 11.019-5.569.092-.057-.178-.353-.644-.705a8.052 8.052 0 0 0-1.223-.712 848.28 848.28 0 0 1-5.412-2.673l-4.652-2.311-.415-.021c-.312-.016-.484.005-.696.085zM6.151 12.118c1.02.524 1.332.893 1.264 1.493-.02.176-.068.285-.154.35l-.125.094.162.244c.138.208.162.3.162.622 0 .299-.024.404-.113.502-.168.186-.404.127-1.287-.316l-.768-.387v-.261c0-.214.018-.26.099-.253.089.007.103-.084.139-.893.034-.757.027-.91-.042-.963-.078-.06-.124-.585-.052-.585.017 0 .339.158.716.352zm.098.959c0 .324.066.434.259.434.243 0 .259-.335.028-.567-.235-.235-.286-.21-.286.133zm21.42 1.133c-1.238.629-4.012 2.033-6.164 3.118l-3.912 1.974-.017.285c-.01.156 0 .285.02.285.035 0 2.777-1.38 9.89-4.976l2.574-1.301.001-.268c.001-.178-.023-.267-.069-.266-.039.001-1.084.517-2.323 1.148zM8.98 13.506c.701.326 1.154 1.133 1.154 2.06 0 .471-.102.849-.28 1.04-.278.298-.812.213-1.324-.209-.768-.634-1.02-2.202-.45-2.806.154-.163.22-.192.428-.191.135 0 .348.048.472.106zm-2.787.763c0 .394.064.48.356.48.268 0 .248-.47-.029-.705-.272-.228-.326-.19-.326.225zm2.555-.02c-.084.093-.111.225-.127.629-.022.577.042.862.236 1.044.132.124.134.124.268.016.122-.099.138-.161.156-.624.024-.64-.013-.849-.188-1.036-.165-.179-.206-.182-.345-.029zm2.909.643c.767.388 1.177 1.215 1.11 2.241-.064.999-.594 1.298-1.374.773-.585-.393-.893-.945-.958-1.713-.049-.58.052-1.005.296-1.25s.516-.26.926-.052zm-.252.696c-.195.215-.216 1.137-.036 1.529.043.087.105.16.181.215l.002.001c.1.062.132.056.236-.047.101-.101.122-.199.139-.658.021-.588-.078-.987-.274-1.092-.136-.073-.135-.073-.247.052zm2.303.421.45.244.018.269c.014.217.002.263-.064.238-.084-.032-.15.164-.15.443 0 .198.064.2.364.013.245-.153.266-.18.181-.242-.106-.077-.138-.536-.038-.536.093 0 .929.434.994.516.089.113.026.512-.076.473-.082-.031-.492.148-.548.241-.046.075.523 1.596.646 1.729.1.108.163.588.076.588-.019 0-.309-.141-.648-.314l-.614-.315v-.249c0-.209.017-.248.109-.248.107 0 .105-.014-.032-.38-.174-.466-.192-.485-.348-.376-.147.103-.171.422-.04.531.077.064.128.564.058.564a6.67 6.67 0 0 1-.545-.257l.038.019-.48-.237v-.269c0-.188.023-.268.076-.268.16 0 .219-1.74.065-1.894-.116-.116-.1-.53.02-.525.02.001.239.111.487.244zm15.993 2.406c.157.173.148.838-.017 1.15-.139.264-.515.624-.819.785-.209.11-.211.114-.211.459 0 .32.009.346.112.318.1-.026.113-.002.113.224 0 .139-.032.278-.07.309-.086.069-.97.52-1.02.52-.02 0-.036-.12-.036-.268 0-.207.026-.284.113-.339.106-.066.113-.131.113-1.055 0-.837-.013-.984-.084-.984-.064 0-.084-.068-.084-.269v-.269l.661-.319c.364-.176.7-.332.746-.346.195-.06.383-.028.484.084zm-.921.701c-.107.076-.124.14-.124.451 0 .391.045.437.26.263.233-.188.329-.583.179-.733-.09-.09-.164-.085-.315.02zm-1.653.561c.239.202.314.472.308 1.124-.009 1.076-.455 1.9-1.224 2.258-.772.359-1.156.005-1.158-1.063-.002-.826.232-1.443.738-1.948.488-.489 1.02-.636 1.336-.371zm-.999.821c-.151.162-.252.615-.247 1.1.005.462.101.716.282.741.368.052.614-1.367.318-1.834-.1-.158-.211-.161-.353-.008zm-1.414.368c0 .18-.029.283-.094.331-.081.059-.099.213-.12 1.033-.025.962-.025.964.098.964.111 0 .121.025.106.268l-.017.268-.507.266c-.279.146-.526.266-.549.267s-.042-.124-.042-.277c0-.221.023-.292.112-.34.092-.049.113-.118.113-.358 0-.164-.015-.314-.034-.332s-.171.033-.338.115l-.304.149v.348c0 .324.008.347.116.319s.115-.01.099.244l-.017.275-.507.266c-.279.146-.526.266-.549.267s-.042-.123-.042-.276c0-.196.027-.293.089-.328.074-.042.094-.22.121-1.049.031-.954.028-.998-.073-.98-.124.021-.164-.107-.114-.369.029-.16.09-.206.568-.444l.534-.266v.281c0 .22-.024.296-.112.351-.092.057-.113.132-.113.395 0 .186.025.324.058.324s.184-.064.338-.142l.28-.141v-.34c0-.292-.013-.337-.099-.323-.078.013-.101-.029-.113-.209-.008-.124.004-.253.028-.288.052-.075.913-.521 1.014-.525.047-.002.07.085.07.259zm-2.883 1.693-.016.548-.226.127c-.286.162-.333.161-.412-.012-.132-.292-.667-.066-.62.262.018.125.046.133.539.161.677.037.777.119.772.634-.005.58-.392 1.156-.932 1.389-.237.101-.316.112-.46.062-.184-.065-.263-.014-.265.169-.001.069-.427.334-.538.334-.014 0-.027-.249-.027-.553v-.553l.292-.149.291-.15.062.126c.098.196.338.194.539-.007.174-.174.22-.341.098-.352l-.141-.001c-.125 0-.25.002-.375.006h.018c-.42.011-.43.007-.584-.175-.145-.172-.154-.213-.129-.564.033-.464.255-.893.599-1.157.267-.206.592-.29.747-.194.141.089.147.085.187-.094.025-.114.101-.193.272-.278.13-.066.257-.121.281-.123s.037.243.028.544z"/></symbol><symbol id="icon-arrowNext" viewBox="0 0 18 32"><path d="M12.078 17.488a2.082 2.082 0 0 0 .459-2.294 2.077 2.077 0 0 0-.459-.682L2.461 4.916a2.108 2.108 0 0 1-.62-1.488 2.104 2.104 0 0 1 .62-1.488 2.097 2.097 0 0 1 2.954 0l9.617 9.617a6.286 6.286 0 0 1 0 8.884l-9.617 9.617a2.099 2.099 0 0 1-3.574-1.488 2.104 2.104 0 0 1 .62-1.488l9.617-9.596z"/></symbol><symbol id="icon-dots" viewBox="0 0 104 32"><path d="M14.047 4.235c-.905.289-1.678.62-2.413 1.014l.076-.037A12.9 12.9 0 0 0 7.7 9.271l-.032.055c-2.401 4.578-1.209 10.381 2.761 13.454 1.905 1.481 4.21 2.201 7.003 2.201 4.018 0 7.019-1.513 9.068-4.578 1.233-1.833 1.617-3.057 1.721-5.475.152-3.506-.64-5.571-3.057-7.988-2.353-2.353-4.282-3.114-7.812-3.098a10.493 10.493 0 0 0-3.38.411l.074-.019zm34.881-.048c-3.807 1.065-6.71 4.096-7.574 7.901l-.014.071c-.544 2.577-.056 5.579 1.273 7.764 2.001 3.298 5.347 5.074 9.533 5.066 3.274-.008 5.715-.96 7.788-3.033 2.049-2.049 3.081-4.602 3.065-7.572a9.475 9.475 0 0 0-1.033-4.624l.025.054c-1.369-2.804-3.848-4.887-6.848-5.698l-.075-.017a15.326 15.326 0 0 0-2.848-.26c-1.166 0-2.302.127-3.395.367l.104-.019zm35.008-.096a10.765 10.765 0 0 0-6.999 5.511l-.028.06c-1.561 3.146-1.417 7.203.36 10.253.76 1.305 2.769 3.202 4.066 3.834 3.346 1.625 7.54 1.665 10.749.088 2.393-1.177 4.506-3.77 5.267-6.475 1.377-4.914-.96-10.245-5.451-12.438a12.71 12.71 0 0 0-2.292-.882l-.094-.022a19.595 19.595 0 0 0-5.691.087l.112-.015z"/></symbol><symbol id="icon-scrollUp" viewBox="0 0 55 32"><path d="M26.7.138c-.242.067-.582.227-.76.352s-5.936 5.867-12.798 12.758C3.542 22.892.614 25.883.437 26.236a3.328 3.328 0 0 0-.401 1.596c0 .58.146 1.126.404 1.603l-.009-.018a3.707 3.707 0 0 0 4.822 1.734c.329-.143 2.695-2.462 11.358-11.119L27.553 9.093l10.945 10.93c12.446 12.432 11.346 11.46 12.97 11.46.809 0 .986-.029 1.452-.247.742-.349 1.484-1.08 1.845-1.819.276-.565.297-.669.297-1.574 0-1.685 1.257-.279-13.078-14.632C31.581 2.793 29.264.517 28.863.319a3.405 3.405 0 0 0-2.186-.176L26.7.138z"/></symbol><symbol id="icon-trash" viewBox="0 0 32 32"><path fill="none" stroke="#fff" style="stroke:var(--color1,#fff)" stroke-linejoin="round" stroke-linecap="round" stroke-width="2.909" d="M12 4h8M4 8h24m-2.667 0-.935 14.026c-.14 2.104-.21 3.157-.665 3.954a4 4 0 0 1-1.731 1.619c-.826.4-1.881.4-3.99.4h-4.025c-2.109 0-3.163 0-3.99-.4a4.005 4.005 0 0 1-1.731-1.619c-.455-.798-.525-1.85-.665-3.954L6.666 8m6.667 6v6.667M18.667 14v6.667"/></symbol><symbol id="icon-logoName" viewBox="0 0 178 32"><path d="M22.176 8.533c0-4.731-3.497-7.406-9.545-7.406H0v29.417h13.33c6.089 0 9.998-2.921 9.998-8.599 0-4.402-2.633-6.665-5.719-7.2v-.082c2.427-.823 4.567-2.51 4.567-6.13zm-17.28 4.772V5.282h7.858c2.921 0 4.526 1.44 4.526 4.032s-1.317 3.991-4.814 3.991h-7.57zm0 3.662h8.599c3.086 0 4.937 1.687 4.937 4.69 0 2.757-1.275 4.731-5.472 4.731H4.896v-9.422zM35.89 31.161c-6.583 0-10.574-4.567-10.574-11.109S29.307 8.943 35.89 8.943s10.574 4.567 10.574 11.109-3.991 11.109-10.574 11.109zm0-3.538c4.114 0 6.254-3.25 6.254-7.57 0-4.361-2.139-7.57-6.254-7.57s-6.254 3.209-6.254 7.57c0 4.32 2.139 7.57 6.254 7.57zM58.912 31.161c-6.583 0-10.574-4.567-10.574-11.109S52.329 8.943 58.912 8.943s10.574 4.567 10.574 11.109-3.991 11.109-10.574 11.109zm0-3.538c4.114 0 6.254-3.25 6.254-7.57 0-4.361-2.139-7.57-6.254-7.57s-6.254 3.209-6.254 7.57c0 4.32 2.139 7.57 6.254 7.57zM72.472 1.127v29.417h4.32v-7.611l2.921-2.757 6.624 10.368h5.184l-8.846-13.207 7.982-7.817H85.35l-8.558 8.434V1.127h-4.32zM101.935 17.831c-3.045-.699-5.39-.864-5.39-3.003 0-1.481 1.399-2.469 3.991-2.469 3.374 0 4.197 1.687 4.485 3.333h4.197c-.288-3.662-3.003-6.747-8.722-6.747-5.266 0-8.311 2.757-8.311 6.213 0 4.773 4.526 5.431 7.858 6.213 3.086.741 5.595.946 5.595 3.579 0 1.317-1.275 2.798-4.279 2.798-4.443 0-5.431-1.934-5.637-4.197h-4.197c.206 4.443 3.127 7.611 9.915 7.611 5.102 0 8.558-2.51 8.558-6.542 0-5.019-4.197-5.883-8.064-6.789zM124.123 8.944c-3.538 0-5.719 1.646-6.83 3.291h-.082V1.126h-4.32v29.417h4.32V17.748c0-3.127 2.263-5.143 5.431-5.143 3.003 0 4.197 1.81 4.197 4.649v13.289h4.361V16.02c0-4.814-3.086-7.077-7.077-7.077zM144.448 27.623c-3.826 0-6.089-2.921-6.089-6.459h16.128c0-7.488-3.333-12.219-10.121-12.219-6.336 0-10.327 4.279-10.327 11.109 0 6.583 3.991 11.109 10.533 11.109 5.39 0 8.517-3.045 9.586-7.035h-4.32c-.37 1.275-1.81 3.497-5.39 3.497zm-.082-15.264c3.497 0 5.801 2.345 5.801 5.595h-11.808c0-3.25 2.51-5.595 6.007-5.595zM157.531 1.127v29.417h4.361V1.127h-4.361zM176.003 4.665V1.127a15.12 15.12 0 0 0-2.88-.288c-3.456 0-5.349 1.563-5.349 6.007V9.52h-3.003v3.538h3.003v17.486h4.361V13.058h3.867V9.52h-3.867V7.216c0-2.386 1.07-2.674 3.867-2.551z"/></symbol><symbol id="icon-logo" viewBox="0 0 32 32"><path fill="#f6f6f6" d="m0 0 16.343 16.171L32 32V0H0z"/><path fill="#f6f6f6" d="M4.457 4.229 16.4 16.058l11.257 11.486h-23.2V4.23z"/><path fill="#4f2ee8" d="M27.733 27.618 15.79 15.789 4.533 4.303h23.2v23.314z"/><path fill="#4f2ee8" d="m9.257 9.029 13.6 13.6h-13.6v-13.6z"/><path fill="#f6f6f6" d="m9.257 9.029 13.6 13.6v-13.6h-13.6z"/></symbol><symbol id="icon-arrowRight" viewBox="0 0 43 32"><path fill="none" stroke="#eac645" style="stroke:var(--color4,#eac645)" stroke-linejoin="round" stroke-linecap="round" stroke-width="5.333" d="M3.555 16h35.556m0 0L25.778 2.667M39.111 16 25.778 29.333"/></symbol><symbol id="icon-tryzub" viewBox="0 0 20 32"><path d="M9.859.172a4.829 4.829 0 0 0-.965 1.895c-.178.666-.171 1.443.04 4.383.174 2.419.201 2.913.221 4.033.013.715.007 1.287-.019 1.634-.143 1.96-.675 3.949-1.622 6.068-.232.521-.901 1.85-.957 1.903-.03.028-.186.005-.624-.093-.957-.215-1.346-.459-1.622-1.016-.125-.253-.128-.267-.128-.627 0-.352.006-.38.114-.602.16-.328.512-.677.841-.832.282-.134.586-.186.879-.151.11.013.204.021.208.017s-.17-1.386-.39-3.07a643.016 643.016 0 0 1-.466-3.637 8.986 8.986 0 0 0-.499-2.168 9.994 9.994 0 0 0-3.759-4.846c-.254-.172-1.044-.63-1.086-.63C.011 2.433 0 7.631 0 13.983v11.55h5.587l.076.325a8.618 8.618 0 0 0 2.101 3.925c.369.392.66.654 1.169 1.05.473.367.789.688.938.953.056.099.112.18.124.179s.089-.108.172-.237c.178-.28.48-.572.867-.842a7.486 7.486 0 0 0 1.14-.961c1.041-1.053 1.811-2.477 2.169-4.011l.077-.331 5.58-.017V2.432l-.17.087c-2.585 1.309-4.539 4.065-5.129 7.231-.077.418-.941 7.022-.92 7.042.007.007.104 0 .214-.017.829-.125 1.702.521 1.847 1.368.114.666-.349 1.397-1.055 1.665a8.53 8.53 0 0 1-.737.193c-.525.119-.57.124-.61.072-.081-.106-.904-1.792-1.101-2.257-.634-1.492-1.085-2.997-1.304-4.345-.143-.88-.179-1.379-.178-2.438.002-1.14.028-1.663.193-3.816.166-2.184.192-2.665.196-3.684.003-.769-.006-.962-.056-1.2a5.897 5.897 0 0 0-.418-1.223 6.375 6.375 0 0 0-.65-.988l-.111-.129-.152.179zM2.117 6.283a8.298 8.298 0 0 1 1.517 3.335c.059.286.733 5.62.733 5.801 0 .045-.085.121-.273.245-.638.422-1.225 1.148-1.396 1.728l-.042.141H1.7V5.79l.071.063c.039.035.194.229.346.43zm16.216 5.401v5.884l-.938-.018-.093-.24c-.255-.655-.727-1.225-1.363-1.646-.211-.139-.272-.197-.272-.257 0-.13.665-5.505.718-5.807.196-1.108.728-2.276 1.493-3.282.202-.265.418-.518.443-.518.007 0 .012 2.648.012 5.884zm-7.834 6.249c.201.492.705 1.527 1.028 2.11.15.271.273.498.273.504a.596.596 0 0 1-.154.051c-.406.102-.93.424-1.361.837l-.268.257-.25-.233c-.444-.413-.916-.711-1.342-.844-.105-.033-.192-.072-.192-.087 0-.014.112-.227.248-.472.593-1.07 1.059-2.1 1.405-3.101l.125-.362.172.495c.095.272.237.653.316.845zm-7.832 1.275c.001.023.05.162.109.309.334.823 1.106 1.543 1.991 1.857.1.036.36.107.576.158s.398.099.405.106c.006.006-.024.177-.066.379a9.55 9.55 0 0 0-.205 1.501l-.021.415H1.7v-4.766h.483c.364 0 .484.01.484.041zm15.666 2.342v2.383h-3.756l-.022-.405a11.712 11.712 0 0 0-.219-1.595 2.251 2.251 0 0 1-.054-.293 8.85 8.85 0 0 1 .455-.12c.558-.138.886-.274 1.269-.526.615-.404 1.147-1.079 1.329-1.686l.042-.141h.956v2.383zm-10.491.536c.705.248 1.325 1.054 1.325 1.721v.126H7.083l.022-.391c.024-.434.056-.648.181-1.196l.084-.37.165.03c.091.017.229.053.307.08zm4.927.364c.096.424.163.923.164 1.225v.258h-2.066v-.115c0-.779.739-1.628 1.566-1.797l.217-.044.026.086c.014.048.056.222.093.387zm-3.602 4.802v1.685l-.17-.193a8.098 8.098 0 0 1-1.188-1.803c-.173-.364-.474-1.198-.475-1.316-.001-.054.065-.058.916-.058h.917v1.685zm3.533-1.656c0 .083-.188.659-.32.985-.309.754-.846 1.614-1.357 2.169l-.154.167-.002-3.35h.916c.512 0 .917.013.917.029z"/></symbol><symbol id="icon-cart" viewBox="0 0 25 32"><path d="M11.47 1.268c-.839.142-1.84.562-2.512 1.056a6.113 6.113 0 0 0-2.135 2.923c-.226.67-.274 1.035-.299 2.229l-.021 1.108-4.784.025-.276.135a1.561 1.561 0 0 0-.747.789L.6 9.769l-.012 8.276c-.009 5.732.002 8.412.032 8.722a4.463 4.463 0 0 0 2.052 3.342c.572.37 1.278.604 2.03.672.235.021 3.657.037 7.742.037s7.508-.016 7.742-.037c1.092-.1 2.044-.537 2.795-1.287a4.425 4.425 0 0 0 1.287-2.727c.03-.309.041-2.99.032-8.722l-.012-8.276-.096-.236a1.553 1.553 0 0 0-.747-.789l-.276-.135-4.784-.025-.021-1.108c-.018-.921-.037-1.179-.112-1.524a5.852 5.852 0 0 0-.891-2.133 5.967 5.967 0 0 0-3.982-2.555c-.462-.075-1.456-.073-1.909.004zm1.867 3.022a2.962 2.962 0 0 1 1.812 1.634c.203.443.24.716.24 1.74l.002.923H9.499l.002-.923c0-1.104.041-1.344.318-1.899A3.006 3.006 0 0 1 11.92 4.19c.372-.066 1.044-.02 1.417.1zm-6.818 8.186c.014.875.018.908.124 1.136.231.494.704.837 1.223.891.516.053 1.086-.228 1.374-.676.212-.331.258-.594.258-1.476v-.779h5.892v.779c0 .571.016.846.064 1.028.283 1.088 1.595 1.49 2.421.743.412-.372.5-.679.5-1.751l.002-.798h2.946l-.021 15.161-.112.236c-.14.302-.43.59-.731.732l-.236.11H4.667l-.236-.11c-.3-.142-.59-.43-.731-.732l-.112-.236-.021-15.161h2.939l.014.903z"/></symbol><symbol id="icon-arrowDown" viewBox="0 0 56 32"><path d="M4.852 3.404c-.236.076-.652.296-.932.492a3.632 3.632 0 0 0-1.224 4.56c.284.616.716 1.06 9.276 9.616 8.472 8.464 9.04 9.008 9.992 9.632 1.864 1.22 3.788 1.788 6.036 1.788 2.636 0 4.896-.796 6.952-2.46.412-.332 4.656-4.524 9.436-9.316 8.188-8.208 8.704-8.744 8.956-9.316.24-.532.272-.72.276-1.5 0-.844-.02-.928-.352-1.604-.4-.808-.916-1.324-1.736-1.724-.472-.232-.624-.26-1.504-.26-1.688.004-.764-.788-10.968 9.38-10.244 10.212-9.388 9.476-11.06 9.476s-.816.736-11.06-9.476C6.844 2.632 7.66 3.34 6.112 3.296c-.536-.016-.992.024-1.26.108z"/></symbol><symbol id="icon-arrowLeft" viewBox="0 0 18 32"><path d="M14.384.043a2.482 2.482 0 0 0-.722.277c-.183.101-.837.743-5.774 5.68-5.856 5.856-5.767 5.765-6.178 6.443a6.87 6.87 0 0 0 0 7.113c.411.681.32.585 6.194 6.457 5.493 5.49 5.586 5.584 5.826 5.705.418.213.64.265 1.097.265.329 0 .434-.011.624-.071 1.008-.315 1.646-1.168 1.646-2.199 0-.533-.151-.985-.466-1.394-.078-.101-2.521-2.555-5.431-5.451-2.91-2.898-5.349-5.344-5.422-5.438a2.5 2.5 0 0 1-.418-.791c-.101-.329-.101-.951 0-1.28.085-.274.235-.56.416-.791.075-.094 2.514-2.539 5.424-5.438 2.91-2.896 5.353-5.351 5.431-5.451a2.305 2.305 0 0 0 .238-2.407A2.351 2.351 0 0 0 15.406.074c-.258-.066-.777-.085-1.022-.032z"/></symbol><symbol id="icon-menu" viewBox="0 0 32 32"><path d="M3.498 6.936c-.218.065-.503.358-.566.582a2.376 2.376 0 0 0 0 .965c.066.235.349.515.591.585.25.072 24.699.072 24.959 0 .235-.066.515-.349.585-.591a2.284 2.284 0 0 0 0-.953c-.07-.242-.35-.525-.585-.591-.239-.066-24.762-.064-24.984.003zm0 5.333c-.218.065-.503.359-.566.583a2.376 2.376 0 0 0 0 .965c.066.235.349.515.591.585.25.072 19.367.071 19.625-.001.235-.065.517-.349.585-.59a2.29 2.29 0 0 0 0-.954c-.069-.241-.35-.525-.585-.59-.238-.066-19.429-.064-19.65.002zm-.015 5.337c-.229.066-.481.328-.547.57-.07.25-.071.727-.003.973.066.235.349.517.591.585.25.072 24.699.072 24.959 0 .235-.065.515-.349.585-.59a2.29 2.29 0 0 0 0-.954c-.07-.241-.35-.525-.585-.59-.248-.069-24.76-.064-24.999.006zm.015 5.33c-.218.065-.503.358-.566.582a2.376 2.376 0 0 0 0 .965c.066.235.349.515.591.585.25.072 19.367.071 19.625 0 .235-.066.517-.349.585-.591a2.284 2.284 0 0 0 0-.953c-.069-.242-.35-.525-.585-.591-.238-.066-19.429-.063-19.65.003z"/></symbol><symbol id="icon-password" viewBox="0 0 32 32"><path d="M14.533.799a9.11 9.11 0 0 0-1.68.439c-2.751.996-4.931 3.401-5.657 6.244-.244.957-.271 1.261-.3 3.511l-.029 2.167-.519.031c-1.193.073-2.155.377-3.032.961-1.163.775-2.036 1.977-2.349 3.239C.73 18.344.72 18.53.72 22.215c0 3.688.015 3.979.245 4.861.483 1.848 2.109 3.473 3.968 3.963.993.263 1.209.268 11.067.268s10.073-.005 11.067-.268c1.861-.491 3.48-2.108 3.972-3.971.24-.909.277-1.708.251-5.252-.025-3.351-.036-3.544-.256-4.425-.315-1.261-1.187-2.464-2.349-3.239-.877-.584-1.839-.888-3.032-.961l-.519-.031-.029-2.167c-.029-2.249-.056-2.553-.3-3.511-.809-3.165-3.376-5.724-6.537-6.516-1.161-.289-2.659-.357-3.733-.167zm2.588 2.644c1.391.225 2.793 1.019 3.735 2.112a5.985 5.985 0 0 1 1.259 2.227c.283.86.336 1.413.337 3.512l.001 1.827H9.546l.001-1.853c0-1.313.023-2.009.076-2.388a6.43 6.43 0 0 1 3.536-4.875c1.249-.615 2.521-.795 3.961-.561zm8.374 12.397c1.047.099 1.591.331 2.195.933.176.176.403.467.503.647.428.765.468 1.173.468 4.82 0 3.107-.031 3.655-.241 4.287-.284.852-1.137 1.687-1.965 1.92-.771.217-.885.22-10.453.22s-9.683-.003-10.453-.22c-.847-.24-1.755-1.147-1.993-1.993-.187-.663-.211-1.157-.212-4.187-.003-3.683.036-4.077.471-4.855.103-.184.329-.475.503-.647.581-.575 1.155-.828 2.085-.92.664-.065 18.407-.071 19.095-.005z"/></symbol><symbol id="icon-closeCross" viewBox="0 0 32 32"><path d="M2.901.844c-.866.324-1.799 1.28-2.076 2.132-.149.46-.092 1.028.16 1.543.197.405.311.524 5.728 5.948l5.525 5.532-5.525 5.532c-5.454 5.461-5.529 5.54-5.733 5.957-.197.407-.206.446-.206.96 0 .501.012.56.176.887a4.05 4.05 0 0 0 1.714 1.714c.327.164.386.176.887.176.514 0 .553-.009.96-.206.418-.204.496-.279 5.957-5.733L16 19.761l5.532 5.525c5.461 5.454 5.54 5.529 5.957 5.733.407.197.446.206.96.206.501 0 .56-.012.887-.176a4.145 4.145 0 0 0 1.273-1.035c.146-.18.343-.485.441-.679.164-.327.176-.386.176-.887 0-.514-.009-.553-.206-.96-.204-.418-.279-.496-5.733-5.957l-5.525-5.532 5.525-5.532c5.454-5.461 5.529-5.54 5.733-5.957.197-.407.206-.446.206-.96 0-.501-.012-.56-.176-.887A4.05 4.05 0 0 0 29.336.949c-.327-.164-.386-.176-.887-.176-.514 0-.553.009-.96.206-.418.204-.496.279-5.957 5.733L16 12.237l-5.532-5.525C5.03 1.283 4.927 1.181 4.516.982c-.37-.18-.473-.206-.88-.222-.356-.012-.526.007-.734.084z"/></symbol><symbol id="icon-book" viewBox="0 0 35 32"><path d="M24.743 4.147 20.768 8.23v15.546l.234-.198c.129-.109 1.936-1.769 4.016-3.689l3.782-3.491.003-8.169c.001-4.493-.017-8.168-.042-8.167s-1.832 1.84-4.018 4.086zM7.509 5.786c-1.95.176-3.864.661-5.565 1.41C.662 7.76.412 7.94.164 8.478l-.135.294v20.592l.125.264c.27.572.839.937 1.462.938.297 0 .436-.039.851-.24 2.4-1.167 4.105-1.598 6.333-1.6 1.578-.002 2.912.23 4.401.765 1.226.44 2.999 1.414 4.058 2.229l.341.262.341-.262c1.059-.815 2.832-1.789 4.058-2.229a12.366 12.366 0 0 1 4.401-.765c1.256.001 2.04.101 3.217.408.986.257 1.506.453 2.665 1.007.841.402.957.442 1.29.443a1.534 1.534 0 0 0 1.434-.884l.164-.335V8.773l-.135-.294c-.197-.428-.383-.593-1.038-.923-.632-.319-1.808-.808-1.942-.808-.07 0-.082 1.438-.082 9.826 0 5.405-.02 9.827-.044 9.827s-.268-.076-.542-.169c-1.203-.409-2.623-.678-4.09-.774-3.082-.202-6.418.618-9.198 2.261-.247.146-.46.266-.474.266s-.031-4.468-.039-9.929l-.015-9.93-1.056-.528a17.362 17.362 0 0 0-5.234-1.673c-.783-.118-3.067-.202-3.772-.138zM11 9.206c.923.159 1.666.352 2.493.65.371.134.721.258.778.275.097.03.102.47.102 8.156 0 6.786-.013 8.12-.079 8.095a30.591 30.591 0 0 0-1.712-.505c-2.749-.694-6.084-.559-8.768.353-.274.093-.518.169-.542.169s-.044-3.653-.044-8.118v-8.118l.57-.218a15.314 15.314 0 0 1 3.566-.852c.801-.089 2.836-.026 3.637.111z"/></symbol><symbol id="icon-email" viewBox="0 0 38 32"><path d="M6.467 1.076c-1.167.125-1.964.364-2.756.822C2.105 2.827 1 4.395.696 6.177c-.038.225-.099.56-.135.743-.086.432-.077 16.809.009 17.882.097 1.204.278 1.94.668 2.708.774 1.527 2.271 2.772 3.818 3.177 1.148.298.796.291 13.855.291 13.034 0 12.7.007 13.849-.287 1.53-.391 3.052-1.657 3.824-3.181.384-.756.566-1.489.668-2.678.086-1.023.095-17.476.009-17.913a34.252 34.252 0 0 1-.135-.743c-.329-1.93-1.567-3.568-3.377-4.47-.543-.271-.908-.387-1.727-.553-.493-.099-1.492-.109-12.794-.119-6.743-.007-12.484.012-12.758.041zm25.379 3.003c.269.077.617.214.772.305.826.484 1.5 1.395 1.636 2.212l.044.262-6.986 4.889c-3.841 2.688-7.197 5.009-7.457 5.159-.441.252-.503.269-.945.269s-.505-.017-.945-.269c-.26-.15-3.616-2.471-7.457-5.159L3.522 6.858l.041-.262c.061-.403.442-1.132.793-1.514.598-.655 1.283-.993 2.233-1.107.243-.029 5.916-.048 12.607-.044l12.164.009.489.138zm-24.199 9.22c3.898 2.724 4.081 2.861 3.971 2.963-.18.169-7.98 7.196-8.103 7.3-.105.089-.111-.23-.111-6.573 0-5.325.016-6.656.079-6.607.044.033 1.917 1.345 4.164 2.916zM34.4 20.297l-.017 3.351-4.106-3.709c-2.259-2.039-4.109-3.737-4.113-3.772-.003-.035 1.844-1.359 4.108-2.941l4.112-2.879.017 3.299a818.93 818.93 0 0 1 0 6.65zm-19.18-1.704c1.3.9 1.958 1.239 2.703 1.392.729.151 1.244.151 1.972 0 .745-.153 1.402-.492 2.703-1.392.55-.381 1.018-.692 1.041-.692.042 0 9.3 8.336 9.703 8.739l.221.22-.324.301c-.449.416-.819.618-1.425.781l-.519.138H6.524l-.519-.138c-.607-.163-.976-.365-1.425-.781l-.324-.301.221-.22c.403-.403 9.661-8.739 9.703-8.739.023 0 .492.311 1.041.692z"/></symbol><symbol id="icon-profile" viewBox="0 0 23 32"><path d="M10.516 1.484a8.558 8.558 0 0 0-4.235 1.785C4.839 4.405 3.767 6.106 3.335 7.937a8.426 8.426 0 0 0 5.599 9.934 8.227 8.227 0 0 0 5.244 0 8.411 8.411 0 0 0 4.832-4.059 8.305 8.305 0 0 0 .981-3.945 8.16 8.16 0 0 0-.864-3.724c-.839-1.714-2.124-2.997-3.854-3.852a8.047 8.047 0 0 0-3.756-.86 10.57 10.57 0 0 0-1.001.053zm.25 18.452c-.064.009-.299.036-.521.059-.946.1-2.105.4-3.029.788a11.28 11.28 0 0 0-6.848 9.108c-.032.286-.06.647-.06.8v.279h22.507l-.025-.491c-.199-3.858-2.532-7.461-6-9.271a11.303 11.303 0 0 0-3.76-1.2c-.389-.053-2.009-.105-2.263-.071z"/></symbol><symbol id="icon-openArrow" viewBox="0 0 60 32"><path d="M3.416 3.276c.14.152 5.588 6.308 12.108 13.684 6.524 7.376 12.052 13.572 12.284 13.776 1.204 1.028 3.184 1.028 4.392-.008.24-.204 5.768-6.404 12.284-13.776s11.96-13.524 12.1-13.676L56.836 3H3.164l.252.276z"/></symbol></defs></svg>